# 3ds Max Wavefront OBJ Exporter v0.99 - (c)2007 guruware
# File Created: 02.03.2025 20:19:19

#
# object AIM120
#

v  -1.8320 -0.0616 -0.0262
v  -1.8320 -0.0854 -0.0359
v  -1.8320 -0.0905 -0.0183
v  -1.8320 -0.0652 -0.0136
v  -1.7676 -0.0555 -0.0377
v  -1.8320 -0.0553 -0.0379
v  -1.7676 -0.0616 -0.0262
v  -1.8320 0.0013 0.0665
v  -1.8320 0.0015 0.0923
v  -1.8320 0.0196 0.0903
v  -1.8320 0.0145 0.0652
v  -1.8319 0.0566 -0.0387
v  -1.8319 0.0779 -0.0529
v  -1.8319 0.0663 -0.0671
v  -1.8319 0.0482 -0.0487
v  -1.8320 -0.0650 0.0128
v  -1.8320 -0.0903 0.0180
v  -1.8320 -0.0848 0.0354
v  -1.8320 -0.0612 0.0255
v  -1.8319 0.0262 -0.0632
v  -1.8319 0.0359 -0.0870
v  -1.8319 0.0185 -0.0922
v  -1.8319 0.0136 -0.0671
v  -1.8320 -0.0464 0.0471
v  -1.8320 -0.0645 0.0654
v  -1.8320 -0.0502 0.0769
v  -1.8320 -0.0361 0.0555
v  -1.8319 0.0387 0.0550
v  -1.8319 0.0531 0.0762
v  -1.8319 0.0671 0.0645
v  -1.8319 0.0489 0.0465
v  -1.8319 -0.0126 -0.0669
v  -1.8319 -0.0180 -0.0920
v  -1.8319 -0.0354 -0.0865
v  -1.8319 -0.0253 -0.0628
v  -1.8319 0.0634 0.0245
v  -1.8319 0.0870 0.0343
v  -1.8319 0.0923 0.0167
v  -1.8319 0.0671 0.0119
v  -1.8320 -0.0471 -0.0482
v  -1.8320 -0.0654 -0.0661
v  -1.8320 -0.0768 -0.0520
v  -1.8320 -0.0245 0.0616
v  -1.8320 -0.0341 0.0854
v  -1.8320 -0.0167 0.0905
v  -1.8320 -0.0117 0.0654
v  -1.8319 0.0669 -0.0145
v  -1.8319 0.0920 -0.0196
v  -1.8319 0.0867 -0.0370
v  -1.8319 0.0630 -0.0269
v  -1.8320 -0.0922 -0.0002
v  -1.8320 -0.0665 -0.0004
v  -1.8319 0.0520 -0.0786
v  -1.8319 0.0379 -0.0572
v  -1.8320 0.0370 0.0850
v  -1.8320 0.0271 0.0612
v  -1.8320 -0.0760 0.0515
v  -1.8320 -0.0550 0.0370
v  -1.8319 0.0002 -0.0938
v  -1.8319 0.0004 -0.0682
v  -1.8319 0.0786 0.0504
v  -1.8319 0.0572 0.0363
v  -1.8319 -0.0513 -0.0779
v  -1.8319 -0.0370 -0.0566
v  -1.8319 0.0940 -0.0015
v  -1.8319 0.0683 -0.0013
v  -1.7676 -0.0119 0.0654
v  -1.7676 0.0013 0.0667
v  -1.7674 0.0628 -0.0269
v  -1.7674 0.0566 -0.0387
v  -1.7674 -0.0370 -0.0566
v  -1.7674 -0.0471 -0.0480
v  -1.7676 -0.0363 0.0555
v  -1.7676 -0.0245 0.0617
v  -1.7674 0.0682 -0.0013
v  -1.7674 0.0669 -0.0143
v  -1.7674 -0.0128 -0.0667
v  -1.7674 -0.0253 -0.0628
v  -1.7674 0.0632 0.0245
v  -1.7674 0.0671 0.0119
v  -1.7676 -0.0612 0.0255
v  -1.7676 -0.0550 0.0370
v  -1.7674 0.0136 -0.0669
v  -1.7674 0.0004 -0.0682
v  -1.7674 0.0487 0.0465
v  -1.7674 0.0572 0.0363
v  -1.7676 -0.0665 -0.0004
v  -1.7676 -0.0652 0.0128
v  -1.7674 0.0379 -0.0570
v  -1.7674 0.0262 -0.0632
v  -1.7676 0.0271 0.0614
v  -1.7674 0.0387 0.0550
v  -1.7676 -0.0654 -0.0134
v  -1.7676 0.0145 0.0652
v  -1.7674 0.0482 -0.0487
v  -1.7676 -0.0465 0.0473
v  -0.8052 -0.0685 0.0687
v  -0.8052 -0.0544 0.0801
v  -0.8052 -0.0383 0.0887
v  -0.8052 -0.0207 0.0938
v  -0.8052 -0.0026 0.0954
v  -0.8052 0.0156 0.0936
v  -0.8052 0.0330 0.0881
v  -0.8050 0.0489 0.0795
v  -0.8050 0.0630 0.0678
v  -0.8050 0.0744 0.0535
v  -0.8050 0.0830 0.0374
v  -0.8050 0.0881 0.0200
v  -0.8050 0.0898 0.0018
v  -0.8050 0.0879 -0.0163
v  -0.8050 0.0824 -0.0337
v  -0.8050 0.0738 -0.0498
v  -0.8050 0.0621 -0.0638
v  -0.8050 0.0480 -0.0753
v  -0.8050 0.0317 -0.0837
v  -0.8050 0.0143 -0.0890
v  -0.8050 -0.0038 -0.0907
v  -0.8050 -0.0220 -0.0887
v  -0.8050 -0.0394 -0.0834
v  -0.8050 -0.0555 -0.0746
v  -0.8052 -0.0694 -0.0630
v  -0.8052 -0.0810 -0.0487
v  -0.8052 -0.0894 -0.0326
v  -0.8052 -0.0947 -0.0152
v  -0.8052 -0.0964 0.0031
v  -0.8052 -0.0944 0.0213
v  -0.8052 -0.0890 0.0387
v  -0.1246 -0.0529 -0.0768
v  -0.1246 -0.0368 -0.0854
v  -0.8052 -0.0802 0.0546
v  0.1817 -0.0940 0.0011
v  -0.1246 -0.0938 0.0009
v  -0.1246 -0.0920 -0.0172
v  0.1817 -0.0923 -0.0170
v  -0.1246 0.0923 -0.0004
v  -0.1246 0.0907 0.0178
v  -0.1246 -0.0868 -0.0348
v  -0.1246 -0.0784 -0.0509
v  -0.1246 0.0000 0.0934
v  -0.1246 -0.0181 0.0916
v  -0.1244 0.0764 -0.0518
v  -0.1244 0.0850 -0.0359
v  -0.1248 -0.0918 0.0191
v  -0.1246 0.0343 -0.0859
v  -0.1244 0.0506 -0.0775
v  -0.1246 0.0515 0.0773
v  -0.1246 0.0355 0.0861
v  -0.1248 -0.0660 0.0665
v  -0.1248 -0.0777 0.0526
v  -0.1246 -0.0194 -0.0909
v  -0.1246 -0.0013 -0.0927
v  -0.1246 0.0856 0.0354
v  -0.1246 0.0771 0.0515
v  -0.1246 -0.0669 -0.0650
v  -0.1246 -0.0357 0.0865
v  -0.1248 -0.0518 0.0780
v  -0.1244 0.0905 -0.0185
v  -0.1246 0.0181 0.0914
v  -0.1244 0.0647 -0.0660
v  -0.1248 -0.0865 0.0365
v  -0.1246 0.0169 -0.0911
v  -0.1246 0.0656 0.0656
v  1.0069 -0.0874 0.0372
v  0.1817 -0.0867 0.0366
v  0.1817 -0.0922 0.0192
v  1.0069 -0.0929 0.0198
v  0.1819 0.0502 -0.0771
v  0.1819 0.0643 -0.0658
v  0.1817 0.0352 0.0863
v  0.1817 0.0178 0.0916
v  0.1817 -0.0872 -0.0344
v  0.1817 -0.0786 -0.0507
v  0.1817 -0.0004 0.0936
v  0.1817 -0.0185 0.0920
v  0.1819 0.0760 -0.0517
v  0.1819 0.0848 -0.0357
v  0.1817 -0.0672 -0.0649
v  0.1817 -0.0531 -0.0766
v  0.1817 -0.0359 0.0867
v  0.1817 -0.0522 0.0782
v  0.1819 0.0901 -0.0183
v  0.1819 0.0922 -0.0002
v  0.1819 -0.0372 -0.0852
v  0.1819 -0.0198 -0.0907
v  0.1819 0.0905 0.0180
v  0.1819 0.0852 0.0355
v  0.1817 -0.0780 0.0528
v  0.1819 -0.0016 -0.0925
v  0.1819 0.0165 -0.0909
v  0.1819 0.0768 0.0517
v  0.1819 0.0652 0.0658
v  0.1819 0.0341 -0.0857
v  0.1817 0.0513 0.0775
v  0.1817 -0.0663 0.0667
v  1.0069 -0.0671 0.0672
v  1.0069 -0.0788 0.0533
v  1.0071 0.0158 -0.0903
v  1.0071 0.0333 -0.0852
v  1.0069 0.0645 0.0663
v  1.0069 0.0506 0.0780
v  1.0069 -0.0947 0.0016
v  1.0069 -0.0931 -0.0165
v  1.0071 0.0495 -0.0768
v  1.0071 0.0636 -0.0652
v  1.0069 0.0344 0.0868
v  1.0069 0.0170 0.0922
v  1.0069 -0.0879 -0.0341
v  1.0069 -0.0795 -0.0502
v  1.0069 -0.0011 0.0942
v  1.0069 -0.0192 0.0923
v  1.0071 0.0753 -0.0511
v  1.0071 0.0841 -0.0352
v  1.0069 -0.0680 -0.0643
v  1.0069 -0.0539 -0.0760
v  1.0069 -0.0368 0.0872
v  1.0069 -0.0529 0.0788
v  1.0071 0.0894 -0.0178
v  1.0071 0.0914 0.0004
v  1.0071 -0.0205 -0.0901
v  1.0069 -0.0379 -0.0846
v  1.0071 0.0896 0.0185
v  1.0071 0.0845 0.0361
v  1.0071 -0.0024 -0.0920
v  1.0071 0.0760 0.0522
v  1.4074 -0.0780 -0.0487
v  1.4074 -0.0669 -0.0625
v  1.4944 -0.0812 -0.0137
v  1.4074 -0.0914 -0.0158
v  1.4074 -0.0863 -0.0330
v  1.4944 -0.0766 -0.0289
v  1.4074 -0.0192 0.0905
v  1.4074 -0.0363 0.0856
v  1.4076 0.0817 -0.0341
v  1.4076 0.0870 -0.0170
v  1.4074 -0.0531 -0.0740
v  1.4074 -0.0374 -0.0824
v  1.4074 -0.0520 0.0773
v  1.4074 -0.0660 0.0660
v  1.4076 0.0889 0.0007
v  1.4076 0.0872 0.0185
v  1.4074 -0.0773 0.0524
v  1.4074 -0.0205 -0.0878
v  1.4076 -0.0027 -0.0896
v  1.4076 0.0821 0.0355
v  1.4074 0.0738 0.0513
v  1.4074 -0.0859 0.0366
v  1.4074 -0.0912 0.0196
v  1.4076 0.0150 -0.0879
v  1.4076 0.0321 -0.0830
v  1.4074 0.0627 0.0652
v  1.4074 0.0489 0.0766
v  1.4074 -0.0931 0.0018
v  1.4076 0.0480 -0.0746
v  1.4076 0.0617 -0.0634
v  1.4074 0.0333 0.0850
v  1.4074 0.0163 0.0903
v  1.4074 -0.0015 0.0922
v  1.4076 0.0731 -0.0496
v  1.5706 -0.0693 0.0152
v  1.4944 -0.0810 0.0176
v  1.4944 -0.0826 0.0018
v  1.5706 -0.0707 0.0018
v  1.4946 0.0141 0.0801
v  1.4944 -0.0016 0.0817
v  1.4946 0.0542 -0.0559
v  1.4946 0.0643 -0.0438
v  1.4946 -0.0693 -0.0429
v  1.4946 -0.0594 -0.0551
v  1.4944 -0.0172 0.0802
v  1.4944 -0.0324 0.0758
v  1.4946 0.0718 -0.0299
v  1.4946 0.0766 -0.0148
v  1.4946 -0.0473 -0.0652
v  1.4946 -0.0333 -0.0727
v  1.4944 -0.0464 0.0685
v  1.4944 -0.0586 0.0586
v  1.4946 0.0782 0.0007
v  1.4946 0.0768 0.0165
v  1.4944 -0.0687 0.0465
v  1.4946 -0.0183 -0.0773
v  1.4946 -0.0027 -0.0790
v  1.4946 0.0724 0.0315
v  1.4946 0.0650 0.0456
v  1.4944 -0.0762 0.0326
v  1.4946 0.0130 -0.0775
v  1.4946 0.0280 -0.0731
v  1.4946 0.0550 0.0577
v  1.4946 0.0429 0.0678
v  1.4946 0.0420 -0.0658
v  1.4946 0.0291 0.0755
v  1.6593 -0.0445 0.0300
v  1.5706 -0.0588 0.0398
v  1.5706 -0.0652 0.0280
v  1.6593 -0.0493 0.0213
v  1.5708 0.0235 -0.0619
v  1.5708 0.0354 -0.0557
v  1.5708 0.0361 0.0581
v  1.5708 0.0244 0.0645
v  1.5706 -0.0694 -0.0115
v  1.5706 -0.0656 -0.0244
v  1.5708 0.0115 0.0683
v  1.5706 -0.0018 0.0698
v  1.5708 0.0458 -0.0473
v  1.5708 0.0544 -0.0370
v  1.5708 -0.0594 -0.0363
v  1.5708 -0.0509 -0.0467
v  1.5706 -0.0152 0.0685
v  1.5706 -0.0280 0.0649
v  1.5708 0.0608 -0.0253
v  1.5708 0.0649 -0.0125
v  1.5708 -0.0407 -0.0553
v  1.5708 -0.0289 -0.0616
v  1.5706 -0.0399 0.0586
v  1.5706 -0.0504 0.0502
v  1.5708 0.0661 0.0009
v  1.5708 0.0650 0.0143
v  1.5708 -0.0161 -0.0656
v  1.5708 -0.0027 -0.0671
v  1.5708 0.0612 0.0271
v  1.5708 0.0550 0.0390
v  1.5708 0.0106 -0.0658
v  1.5708 0.0465 0.0495
v  1.7295 -0.0158 -0.0302
v  1.6595 -0.0222 -0.0454
v  1.6595 -0.0126 -0.0484
v  1.7295 -0.0093 -0.0322
v  1.6595 -0.0027 -0.0495
v  1.6595 0.0073 -0.0485
v  1.6595 0.0403 0.0295
v  1.6595 0.0339 0.0372
v  1.6593 -0.0522 0.0117
v  1.6593 -0.0533 0.0018
v  1.6595 0.0169 -0.0458
v  1.6595 0.0256 -0.0410
v  1.6595 0.0262 0.0436
v  1.6595 0.0176 0.0484
v  1.6593 -0.0524 -0.0081
v  1.6593 -0.0495 -0.0178
v  1.6593 0.0079 0.0513
v  1.6593 -0.0020 0.0524
v  1.6595 0.0335 -0.0348
v  1.6595 0.0399 -0.0271
v  1.6595 -0.0449 -0.0266
v  1.6595 -0.0387 -0.0343
v  1.6593 -0.0119 0.0515
v  1.6593 -0.0214 0.0487
v  1.6595 0.0447 -0.0183
v  1.6595 0.0476 -0.0088
v  1.6595 -0.0310 -0.0407
v  1.6593 -0.0304 0.0440
v  1.6593 -0.0381 0.0377
v  1.6595 0.0485 0.0011
v  1.6595 0.0476 0.0110
v  1.6595 0.0449 0.0207
v  1.7916 -0.0152 -0.0112
v  1.7295 -0.0269 -0.0227
v  1.7295 -0.0216 -0.0269
v  1.7916 -0.0126 -0.0134
v  1.7295 0.0313 0.0081
v  1.7295 0.0295 0.0145
v  1.7293 -0.0308 0.0209
v  1.7293 -0.0341 0.0148
v  1.7295 -0.0026 -0.0330
v  1.7295 0.0040 -0.0322
v  1.7295 0.0264 0.0203
v  1.7295 0.0222 0.0256
v  1.7293 -0.0361 0.0084
v  1.7293 -0.0368 0.0016
v  1.7295 0.0106 -0.0304
v  1.7295 0.0165 -0.0273
v  1.7295 0.0169 0.0300
v  1.7295 0.0110 0.0332
v  1.7295 -0.0361 -0.0049
v  1.7295 -0.0343 -0.0114
v  1.7295 0.0046 0.0352
v  1.7295 -0.0022 0.0359
v  1.7295 0.0218 -0.0229
v  1.7295 0.0260 -0.0178
v  1.7295 -0.0311 -0.0174
v  1.7295 -0.0088 0.0354
v  1.7293 -0.0154 0.0333
v  1.7295 0.0293 -0.0119
v  1.7295 0.0313 -0.0055
v  1.7293 -0.0213 0.0302
v  1.7293 -0.0266 0.0260
v  1.7295 0.0321 0.0013
v  1.8212 -0.0119 -0.0022
v  1.7916 -0.0191 -0.0053
v  1.7916 -0.0176 -0.0084
v  1.8212 -0.0110 -0.0040
v  1.7916 -0.0092 0.0183
v  1.7916 -0.0123 0.0167
v  1.7916 0.0152 -0.0020
v  1.7916 0.0156 0.0015
v  1.7916 -0.0095 -0.0150
v  1.7916 -0.0060 -0.0161
v  1.7916 0.0152 0.0049
v  1.7916 0.0143 0.0082
v  1.7916 -0.0174 0.0117
v  1.7916 -0.0191 0.0086
v  1.7916 -0.0026 -0.0165
v  1.7916 0.0009 -0.0161
v  1.7916 0.0126 0.0115
v  1.7916 0.0104 0.0143
v  1.7916 -0.0202 0.0051
v  1.7916 -0.0205 0.0016
v  1.7916 0.0044 -0.0152
v  1.7916 0.0075 -0.0136
v  1.7916 0.0077 0.0165
v  1.7916 0.0046 0.0181
v  1.7916 -0.0202 -0.0018
v  1.7916 0.0013 0.0192
v  1.7916 -0.0024 0.0196
v  1.7916 0.0103 -0.0114
v  1.7916 0.0125 -0.0086
v  1.7916 -0.0059 0.0192
v  1.7916 0.0141 -0.0055
v  1.7916 -0.0150 0.0143
v  1.8212 -0.0126 0.0016
v  1.8212 -0.0125 -0.0004
v  1.8320 -0.0026 0.0016
v  1.8212 -0.0024 0.0117
v  1.8212 -0.0044 0.0115
v  1.8212 0.0059 -0.0040
v  1.8212 0.0068 -0.0024
v  1.8212 -0.0097 -0.0055
v  1.8212 -0.0081 -0.0068
v  1.8212 -0.0062 0.0110
v  1.8212 -0.0081 0.0101
v  1.8212 0.0075 -0.0005
v  1.8212 0.0077 0.0015
v  1.8212 -0.0064 -0.0077
v  1.8212 -0.0046 -0.0084
v  1.8212 0.0075 0.0035
v  1.8212 0.0070 0.0053
v  1.8212 -0.0108 0.0071
v  1.8212 -0.0117 0.0055
v  1.8212 -0.0026 -0.0086
v  1.8212 -0.0005 -0.0084
v  1.8212 0.0060 0.0071
v  1.8212 0.0048 0.0086
v  1.8212 -0.0125 0.0037
v  1.8212 0.0013 -0.0079
v  1.8212 0.0031 -0.0070
v  1.8212 0.0031 0.0099
v  1.8212 0.0015 0.0108
v  1.8212 -0.0004 0.0115
v  1.8212 0.0046 -0.0057
v  1.8212 -0.0095 0.0088
v  -1.7674 0.0009 -0.0007
v  -1.5966 0.1664 0.1592
v  -1.4644 0.0920 0.0824
v  -1.4644 0.0757 0.0663
v  -1.6139 0.0758 0.0663
v  -1.6139 0.0823 0.0725
v  -1.6527 0.0823 0.0725
v  -1.7778 0.1667 0.1592
v  -1.6527 0.0758 0.0663
v  -1.7650 0.0758 0.0661
v  -1.4644 0.0694 0.0727
v  -1.4644 0.0857 0.0889
v  -1.5966 0.1636 0.1620
v  -1.6139 0.0760 0.0790
v  -1.6139 0.0694 0.0725
v  -1.7778 0.1638 0.1620
v  -1.6527 0.0760 0.0790
v  -1.7650 0.0696 0.0725
v  -1.6527 0.0696 0.0725
v  -1.5968 -0.1587 0.1642
v  -1.4645 -0.0821 0.0900
v  -1.4645 -0.0660 0.0736
v  -1.6140 -0.0658 0.0735
v  -1.6140 -0.0722 0.0799
v  -1.6527 -0.0722 0.0799
v  -1.7780 -0.1587 0.1642
v  -1.6527 -0.0658 0.0735
v  -1.7652 -0.0658 0.0735
v  -1.4645 -0.0724 0.0672
v  -1.4645 -0.0885 0.0837
v  -1.5968 -0.1616 0.1614
v  -1.6140 -0.0786 0.0736
v  -1.6140 -0.0722 0.0672
v  -1.7780 -0.1616 0.1612
v  -1.6527 -0.0786 0.0736
v  -1.7652 -0.0720 0.0671
v  -1.6527 -0.0722 0.0672
v  -1.5964 0.1614 -0.1660
v  -1.4642 0.0846 -0.0916
v  -1.4642 0.0683 -0.0753
v  -1.6137 0.0685 -0.0753
v  -1.6137 0.0749 -0.0819
v  -1.6525 0.0749 -0.0819
v  -1.7776 0.1616 -0.1662
v  -1.6525 0.0685 -0.0755
v  -1.7650 0.0687 -0.0755
v  -1.4642 0.0747 -0.0691
v  -1.4642 0.0909 -0.0854
v  -1.5964 0.1642 -0.1632
v  -1.6137 0.0813 -0.0755
v  -1.6137 0.0749 -0.0691
v  -1.7776 0.1645 -0.1634
v  -1.6525 0.0813 -0.0757
v  -1.7650 0.0751 -0.0693
v  -1.6525 0.0749 -0.0691
v  -1.6468 0.0562 0.0511
v  -1.6468 0.0784 0.0729
v  -1.6190 0.0782 0.0729
v  -1.6190 0.0561 0.0511
v  -1.6190 0.0758 0.0755
v  -1.6190 0.0537 0.0537
v  -1.6468 0.0758 0.0755
v  -1.6468 0.0537 0.0537
v  -1.6468 -0.0507 0.0539
v  -1.6470 -0.0725 0.0760
v  -1.6192 -0.0725 0.0760
v  -1.6192 -0.0507 0.0539
v  -1.6192 -0.0751 0.0735
v  -1.6192 -0.0533 0.0513
v  -1.6470 -0.0751 0.0735
v  -1.6468 -0.0533 0.0513
v  -1.6468 -0.0533 -0.0531
v  -1.6468 -0.0755 -0.0749
v  -1.6190 -0.0757 -0.0749
v  -1.6190 -0.0535 -0.0531
v  -1.6190 -0.0731 -0.0775
v  -1.6190 -0.0509 -0.0555
v  -1.6468 -0.0731 -0.0775
v  -1.6468 -0.0509 -0.0555
v  -1.6466 0.0535 -0.0557
v  -1.6466 0.0753 -0.0779
v  -1.6188 0.0753 -0.0779
v  -1.6190 0.0535 -0.0557
v  -1.6188 0.0779 -0.0755
v  -1.6190 0.0559 -0.0533
v  -1.6466 0.0779 -0.0755
v  -1.6466 0.0561 -0.0533
v  -0.0680 0.1751 0.1702
v  0.1669 0.0795 0.0727
v  0.1669 0.0742 0.0674
v  0.0174 0.0742 0.0672
v  0.0174 0.0808 0.0736
v  -0.0214 0.0808 0.0736
v  -0.1466 0.1753 0.1702
v  -0.0214 0.0744 0.0672
v  -0.1339 0.0744 0.0672
v  0.1669 0.0678 0.0738
v  0.1669 0.0731 0.0790
v  -0.0680 0.1724 0.1729
v  0.0174 0.0744 0.0801
v  0.0172 0.0680 0.0736
v  -0.1466 0.1726 0.1729
v  -0.0214 0.0746 0.0801
v  -0.1339 0.0682 0.0736
v  -0.0214 0.0680 0.0736
v  -0.0683 -0.1702 0.1753
v  0.1667 -0.0727 0.0799
v  0.1667 -0.0674 0.0746
v  0.0172 -0.0674 0.0746
v  0.0172 -0.0736 0.0810
v  -0.0216 -0.0736 0.0810
v  -0.1469 -0.1702 0.1753
v  -0.0216 -0.0672 0.0746
v  -0.1339 -0.0672 0.0744
v  0.1667 -0.0738 0.0683
v  0.1667 -0.0791 0.0736
v  -0.0683 -0.1729 0.1724
v  0.0172 -0.0801 0.0747
v  0.0172 -0.0736 0.0683
v  -0.1469 -0.1729 0.1726
v  -0.0216 -0.0801 0.0747
v  -0.1339 -0.0736 0.0682
v  -0.0216 -0.0736 0.0683
v  -0.0682 -0.1753 -0.1700
v  0.1667 -0.0801 -0.0722
v  0.1667 -0.0747 -0.0671
v  0.0172 -0.0746 -0.0671
v  0.0172 -0.0810 -0.0735
v  -0.0214 -0.0810 -0.0735
v  -0.1467 -0.1753 -0.1702
v  -0.0214 -0.0746 -0.0671
v  -0.1339 -0.0744 -0.0672
v  0.1667 -0.0685 -0.0733
v  0.1667 -0.0738 -0.0786
v  -0.0682 -0.1724 -0.1729
v  0.0172 -0.0747 -0.0799
v  0.0172 -0.0683 -0.0735
v  -0.1467 -0.1726 -0.1729
v  -0.0214 -0.0747 -0.0799
v  -0.1339 -0.0682 -0.0735
v  -0.0214 -0.0683 -0.0735
v  -0.0678 0.1700 -0.1751
v  0.1669 0.0722 -0.0795
v  0.1669 0.0669 -0.0742
v  0.0174 0.0671 -0.0744
v  0.0174 0.0735 -0.0808
v  -0.0214 0.0735 -0.0808
v  -0.1464 0.1702 -0.1753
v  -0.0214 0.0671 -0.0744
v  -0.1337 0.0672 -0.0744
v  0.1669 0.0733 -0.0680
v  0.1669 0.0784 -0.0733
v  -0.0678 0.1728 -0.1724
v  0.0174 0.0797 -0.0746
v  0.0174 0.0735 -0.0680
v  -0.1464 0.1729 -0.1726
v  -0.0214 0.0799 -0.0746
v  -0.1337 0.0735 -0.0682
v  -0.0214 0.0735 -0.0682
v  -0.0165 0.0546 0.0522
v  -0.0165 0.0768 0.0740
v  0.0114 0.0768 0.0740
v  0.0112 0.0546 0.0522
v  0.0114 0.0744 0.0766
v  0.0112 0.0522 0.0548
v  -0.0165 0.0744 0.0766
v  -0.0165 0.0522 0.0548
v  -0.0167 -0.0522 0.0548
v  -0.0167 -0.0740 0.0769
v  0.0112 -0.0740 0.0771
v  0.0112 -0.0522 0.0550
v  0.0112 -0.0766 0.0746
v  0.0112 -0.0548 0.0524
v  -0.0167 -0.0766 0.0746
v  -0.0167 -0.0548 0.0524
v  -0.0167 -0.0550 -0.0520
v  -0.0167 -0.0771 -0.0738
v  0.0112 -0.0771 -0.0738
v  0.0112 -0.0550 -0.0520
v  0.0112 -0.0746 -0.0764
v  0.0112 -0.0524 -0.0546
v  -0.0167 -0.0746 -0.0764
v  -0.0167 -0.0524 -0.0546
v  -0.0165 0.0520 -0.0548
v  -0.0165 0.0738 -0.0768
v  0.0114 0.0738 -0.0768
v  0.0114 0.0520 -0.0546
v  0.0114 0.0764 -0.0744
v  0.0114 0.0544 -0.0522
v  -0.0165 0.0764 -0.0744
v  -0.0165 0.0544 -0.0522
v  -1.5926 -0.1609 -0.1609
v  -1.4622 -0.0839 -0.0837
v  -1.4627 -0.0674 -0.0676
v  -1.6120 -0.0705 -0.0682
v  -1.6120 -0.0771 -0.0746
v  -1.6507 -0.0779 -0.0746
v  -1.7738 -0.1647 -0.1616
v  -1.6509 -0.0714 -0.0683
v  -1.7632 -0.0738 -0.0687
v  -1.4627 -0.0612 -0.0740
v  -1.4623 -0.0775 -0.0901
v  -1.5928 -0.1581 -0.1638
v  -1.6120 -0.0707 -0.0808
v  -1.6122 -0.0643 -0.0746
v  -1.7738 -0.1620 -0.1645
v  -1.6509 -0.0716 -0.0810
v  -1.7633 -0.0676 -0.0749
v  -1.6510 -0.0652 -0.0746
# 658 vertices

vn -1.0000 0.0009 -0.0006
vn -1.0000 0.0009 -0.0007
vn 0.0004 0.8352 0.5499
vn 0.0006 0.9265 0.3764
vn -1.0000 0.0010 -0.0007
vn -1.0000 0.0010 -0.0006
vn 0.0008 0.1884 -0.9821
vn 0.0006 -0.0068 -1.0000
vn -0.0011 -0.9213 0.3890
vn -0.0011 -0.8277 0.5612
vn 0.0000 0.5612 0.8277
vn 0.0002 0.7119 0.7023
vn 0.0011 0.5499 -0.8352
vn 0.0009 0.3764 -0.9265
vn -0.0009 -1.0000 0.0068
vn -0.0010 -0.9794 0.2018
vn -0.0004 0.2018 0.9794
vn -0.0002 0.3889 0.9213
vn -0.0006 -0.9265 -0.3764
vn -0.0008 -0.9821 -0.1884
vn 0.0011 0.9213 -0.3890
vn 0.0011 0.8277 -0.5612
vn -0.0008 -0.1884 0.9821
vn -0.0006 0.0068 1.0000
vn -0.0002 -0.7119 -0.7023
vn -0.0004 -0.8352 -0.5499
vn 0.0009 1.0000 -0.0068
vn 0.0010 0.9794 -0.2018
vn -0.0011 -0.5499 0.8352
vn -0.0009 -0.3764 0.9265
vn 0.0002 -0.3889 -0.9213
vn 0.0000 -0.5612 -0.8277
vn 0.0008 0.9821 0.1884
vn 0.0004 -0.2018 -0.9794
vn -0.0011 -0.7023 0.7119
vn 0.0011 0.7023 -0.7119
vn -0.0048 -0.5498 0.8353
vn -0.0051 -0.7022 0.7119
vn -0.0010 -0.5500 0.8352
vn -0.0044 -0.3763 0.9265
vn -0.0009 -0.3765 0.9264
vn -0.0038 -0.1882 0.9821
vn -0.0008 -0.1886 0.9821
vn -0.0031 0.0070 1.0000
vn -0.0006 0.0066 1.0000
vn -0.0022 0.2020 0.9794
vn -0.0004 0.2015 0.9795
vn -0.0013 0.3892 0.9212
vn -0.0002 0.3887 0.9214
vn -0.0003 0.5614 0.8275
vn 0.0000 0.5610 0.8278
vn 0.0007 0.7121 0.7021
vn 0.0002 0.7117 0.7025
vn 0.0017 0.8354 0.5497
vn 0.0004 0.8351 0.5501
vn 0.0026 0.9265 0.3762
vn 0.0006 0.9264 0.3766
vn 0.0034 0.9821 0.1882
vn 0.0008 0.9820 0.1886
vn 0.0041 1.0000 -0.0070
vn 0.0009 1.0000 -0.0066
vn 0.0046 0.9794 -0.2019
vn 0.0010 0.9795 -0.2016
vn 0.0049 0.9212 -0.3890
vn 0.0011 0.9213 -0.3889
vn 0.0051 0.8276 -0.5612
vn 0.0051 0.7023 -0.7119
vn 0.0048 0.5500 -0.8352
vn 0.0010 0.5498 -0.8353
vn 0.0044 0.3765 -0.9264
vn 0.0009 0.3762 -0.9265
vn 0.0038 0.1886 -0.9821
vn 0.0008 0.1882 -0.9821
vn 0.0031 -0.0066 -1.0000
vn 0.0006 -0.0070 -1.0000
vn 0.0022 -0.2016 -0.9795
vn 0.0004 -0.2020 -0.9794
vn 0.0013 -0.3888 -0.9213
vn 0.0002 -0.3893 -0.9211
vn 0.0003 -0.5610 -0.8278
vn 0.0000 -0.5615 -0.8275
vn -0.0007 -0.7117 -0.7025
vn -0.0002 -0.7121 -0.7021
vn -0.0017 -0.8351 -0.5501
vn -0.0004 -0.8354 -0.5497
vn -0.0026 -0.9264 -0.3766
vn -0.0006 -0.9266 -0.3761
vn -0.0034 -0.9820 -0.1886
vn -0.0008 -0.9821 -0.1882
vn -0.0041 -1.0000 0.0066
vn -0.0009 -1.0000 0.0070
vn -0.0046 -0.9794 0.2016
vn -0.0010 -0.9794 0.2019
vn -0.0049 -0.9213 0.3889
vn -0.0011 -0.9212 0.3890
vn -0.0003 -0.5610 -0.8278
vn -0.0009 -0.3888 -0.9213
vn -0.0051 -0.8277 0.5612
vn -0.0011 -0.8276 0.5612
vn 0.0023 -1.0000 0.0067
vn 0.0019 -0.9821 -0.1886
vn -0.0023 1.0000 -0.0070
vn -0.0019 0.9821 0.1882
vn 0.0014 -0.9264 -0.3766
vn 0.0009 -0.8351 -0.5501
vn 0.0019 0.0070 1.0000
vn 0.0023 -0.1882 0.9821
vn -0.0030 0.8277 -0.5612
vn -0.0029 0.9212 -0.3890
vn 0.0027 -0.9795 0.2016
vn -0.0027 0.3765 -0.9264
vn -0.0029 0.5500 -0.8352
vn 0.0003 0.5614 0.8275
vn 0.0009 0.3892 0.9212
vn 0.0030 -0.7022 0.7119
vn 0.0030 -0.8277 0.5612
vn -0.0014 -0.2015 -0.9795
vn -0.0019 -0.0066 -1.0000
vn -0.0014 0.9265 0.3762
vn -0.0009 0.8354 0.5497
vn 0.0003 -0.7117 -0.7025
vn 0.0027 -0.3763 0.9265
vn 0.0029 -0.5498 0.8353
vn -0.0027 0.9794 -0.2019
vn 0.0014 0.2020 0.9794
vn -0.0030 0.7023 -0.7119
vn 0.0029 -0.9213 0.3889
vn -0.0023 0.1886 -0.9821
vn -0.0003 0.7121 0.7021
vn 0.0006 -0.9213 0.3890
vn 0.0007 -0.9794 0.2018
vn 0.0010 0.5499 -0.8352
vn -0.0002 0.3890 0.9212
vn 0.0011 0.9212 -0.3890
vn -0.0010 -0.5499 0.8352
vn 0.0002 -0.3890 -0.9213
vn 0.0006 -0.7023 0.7119
vn 0.0006 -0.8277 0.5612
vn 0.0025 0.1884 -0.9821
vn 0.0027 0.3764 -0.9265
vn 0.0019 0.7119 0.7023
vn 0.0017 0.5612 0.8277
vn 0.0008 -1.0000 0.0068
vn 0.0009 -0.9821 -0.1884
vn 0.0028 0.5499 -0.8352
vn 0.0028 0.7023 -0.7119
vn 0.0015 0.3890 0.9212
vn 0.0013 0.2018 0.9794
vn 0.0011 -0.9265 -0.3764
vn 0.0013 -0.8352 -0.5499
vn 0.0011 0.0068 1.0000
vn 0.0009 -0.1884 0.9821
vn 0.0028 0.8277 -0.5612
vn 0.0028 0.9212 -0.3890
vn 0.0015 -0.7119 -0.7023
vn 0.0017 -0.5612 -0.8277
vn 0.0008 -0.3763 0.9265
vn 0.0007 -0.5499 0.8352
vn 0.0028 0.9794 -0.2018
vn 0.0026 1.0000 -0.0068
vn 0.0022 -0.2018 -0.9794
vn 0.0020 -0.3890 -0.9213
vn 0.0025 0.9821 0.1884
vn 0.0023 0.9265 0.3764
vn 0.0024 -0.0068 -1.0000
vn 0.0021 0.8352 0.5499
vn 0.0243 -0.8350 -0.5497
vn 0.0245 -0.7117 -0.7020
vn 0.1343 -0.9732 -0.1866
vn 0.0239 -0.9818 -0.1883
vn 0.0241 -0.9262 -0.3763
vn 0.1345 -0.9181 -0.3728
vn 0.0239 -0.1884 0.9818
vn 0.0237 -0.3762 0.9262
vn 0.0258 0.9210 -0.3888
vn 0.0257 0.9791 -0.2017
vn 0.0247 -0.5611 -0.8274
vn 0.0249 -0.3889 -0.9209
vn 0.0236 -0.5497 0.8350
vn 0.0236 -0.7021 0.7117
vn 0.0256 0.9996 -0.0068
vn 0.0255 0.9818 0.1884
vn 0.0236 -0.8274 0.5611
vn 0.0251 -0.2017 -0.9791
vn 0.0253 -0.0068 -0.9997
vn 0.0253 0.9262 0.3763
vn 0.0251 0.8350 0.5497
vn 0.0236 -0.9210 0.3889
vn 0.0236 -0.9792 0.2017
vn 0.0255 0.1883 -0.9818
vn 0.0256 0.3763 -0.9262
vn 0.0249 0.7117 0.7021
vn 0.0247 0.5610 0.8274
vn 0.0238 -0.9997 0.0068
vn 0.0257 0.5497 -0.8350
vn 0.0258 0.7020 -0.7117
vn 0.0244 0.3888 0.9210
vn 0.0242 0.2017 0.9792
vn 0.0240 0.0068 0.9997
vn 0.0258 0.8274 -0.5610
vn 0.1723 -0.9648 0.1988
vn 0.1341 -0.9706 0.2000
vn 0.1342 -0.9909 0.0068
vn 0.1724 -0.9850 0.0068
vn 0.1346 0.1998 0.9705
vn 0.1345 0.0066 0.9909
vn 0.1362 0.6957 -0.7053
vn 0.1362 0.8200 -0.5560
vn 0.1347 -0.8277 -0.5448
vn 0.1349 -0.7055 -0.6957
vn 0.1343 -0.1868 0.9732
vn 0.1342 -0.3730 0.9181
vn 0.1362 0.9127 -0.3853
vn 0.1361 0.9703 -0.1998
vn 0.1351 -0.5562 -0.8200
vn 0.1353 -0.3855 -0.9127
vn 0.1341 -0.5450 0.8277
vn 0.1340 -0.6960 0.7055
vn 0.1360 0.9907 -0.0067
vn 0.1359 0.9730 0.1868
vn 0.1340 -0.8202 0.5562
vn 0.1356 -0.2000 -0.9704
vn 0.1357 -0.0069 -0.9907
vn 0.1357 0.9178 0.3730
vn 0.1355 0.8274 0.5449
vn 0.1340 -0.9129 0.3855
vn 0.1359 0.1866 -0.9730
vn 0.1360 0.3728 -0.9179
vn 0.1353 0.7053 0.6959
vn 0.1351 0.5559 0.8202
vn 0.1361 0.5447 -0.8275
vn 0.1349 0.3852 0.9129
vn 0.2055 -0.8100 0.5493
vn 0.1722 -0.8153 0.5529
vn 0.1722 -0.9075 0.3832
vn 0.2055 -0.9016 0.3807
vn 0.1742 0.3705 -0.9123
vn 0.1743 0.5414 -0.8225
vn 0.1733 0.5526 0.8152
vn 0.1731 0.3829 0.9074
vn 0.1725 -0.9674 -0.1855
vn 0.1727 -0.9126 -0.3706
vn 0.1729 0.1986 0.9647
vn 0.1727 0.0065 0.9850
vn 0.1744 0.6915 -0.7010
vn 0.1744 0.8150 -0.5526
vn 0.1729 -0.8228 -0.5414
vn 0.1731 -0.7013 -0.6915
vn 0.1725 -0.1857 0.9673
vn 0.1724 -0.3709 0.9126
vn 0.1744 0.9072 -0.3829
vn 0.1743 0.9645 -0.1986
vn 0.1733 -0.5529 -0.8150
vn 0.1735 -0.3832 -0.9072
vn 0.1723 -0.5417 0.8227
vn 0.1722 -0.6918 0.7012
vn 0.1742 0.9847 -0.0066
vn 0.1741 0.9671 0.1856
vn 0.1737 -0.1988 -0.9645
vn 0.1739 -0.0069 -0.9847
vn 0.1739 0.9123 0.3708
vn 0.1737 0.8224 0.5417
vn 0.1741 0.1854 -0.9671
vn 0.1735 0.7010 0.6918
vn 0.2389 -0.3779 -0.8945
vn 0.2068 -0.3807 -0.9013
vn 0.2070 -0.1976 -0.9582
vn 0.2391 -0.1961 -0.9510
vn 0.2072 -0.0068 -0.9783
vn 0.2074 0.1841 -0.9608
vn 0.2070 0.8170 0.5382
vn 0.2068 0.6964 0.6872
vn 0.2056 -0.9585 0.1975
vn 0.2057 -0.9786 0.0068
vn 0.2075 0.3680 -0.9064
vn 0.2076 0.5379 -0.8171
vn 0.2066 0.5489 0.8099
vn 0.2063 0.3804 0.9015
vn 0.2058 -0.9611 -0.1842
vn 0.2060 -0.9067 -0.3681
vn 0.2061 0.1972 0.9584
vn 0.2060 0.0065 0.9785
vn 0.2077 0.6869 -0.6964
vn 0.2077 0.8096 -0.5490
vn 0.2062 -0.8174 -0.5379
vn 0.2064 -0.6968 -0.6870
vn 0.2058 -0.1846 0.9610
vn 0.2056 -0.3685 0.9066
vn 0.2077 0.9012 -0.3804
vn 0.2076 0.9581 -0.1972
vn 0.2066 -0.5493 -0.8097
vn 0.2056 -0.5382 0.8173
vn 0.2055 -0.6873 0.6967
vn 0.2075 0.9782 -0.0065
vn 0.2073 0.9607 0.1845
vn 0.2072 0.9063 0.3684
vn 0.2551 -0.6885 -0.6788
vn 0.2385 -0.6915 -0.6818
vn 0.2387 -0.5452 -0.8036
vn 0.2553 -0.5429 -0.8000
vn 0.2395 0.9535 0.1831
vn 0.2393 0.8994 0.3657
vn 0.2376 -0.8039 0.5452
vn 0.2377 -0.8949 0.3778
vn 0.2393 -0.0068 -0.9709
vn 0.2395 0.1828 -0.9535
vn 0.2391 0.8108 0.5342
vn 0.2389 0.6911 0.6821
vn 0.2377 -0.9513 0.1961
vn 0.2378 -0.9713 0.0068
vn 0.2396 0.3652 -0.8995
vn 0.2397 0.5338 -0.8109
vn 0.2387 0.5448 0.8039
vn 0.2385 0.3775 0.8948
vn 0.2379 -0.9539 -0.1828
vn 0.2381 -0.8999 -0.3653
vn 0.2383 0.1957 0.9513
vn 0.2381 0.0064 0.9712
vn 0.2398 0.6818 -0.6912
vn 0.2398 0.8035 -0.5449
vn 0.2383 -0.8113 -0.5339
vn 0.2379 -0.1832 0.9539
vn 0.2378 -0.3658 0.8998
vn 0.2398 0.8944 -0.3776
vn 0.2397 0.9509 -0.1957
vn 0.2377 -0.5343 0.8112
vn 0.2376 -0.6822 0.6915
vn 0.2396 0.9708 -0.0065
vn 0.3223 -0.8771 -0.3561
vn 0.2547 -0.8960 -0.3637
vn 0.2549 -0.8078 -0.5315
vn 0.3224 -0.7908 -0.5202
vn 0.2544 -0.3642 0.8959
vn 0.2543 -0.5320 0.8076
vn 0.2563 0.9467 -0.1949
vn 0.2562 0.9666 -0.0064
vn 0.2555 -0.3763 -0.8906
vn 0.2557 -0.1952 -0.9468
vn 0.2561 0.9493 0.1823
vn 0.2559 0.8955 0.3641
vn 0.2542 -0.8005 0.5428
vn 0.2543 -0.8910 0.3762
vn 0.2559 -0.0068 -0.9667
vn 0.2561 0.1820 -0.9494
vn 0.2557 0.8073 0.5319
vn 0.2555 0.6881 0.6792
vn 0.2543 -0.9472 0.1953
vn 0.2544 -0.9671 0.0068
vn 0.2562 0.3636 -0.8956
vn 0.2563 0.5314 -0.8074
vn 0.2553 0.5424 0.8004
vn 0.2551 0.3758 0.8909
vn 0.2545 -0.9498 -0.1820
vn 0.2549 0.1948 0.9472
vn 0.2547 0.0064 0.9670
vn 0.2564 0.6788 -0.6881
vn 0.2564 0.8000 -0.5425
vn 0.2545 -0.1823 0.9497
vn 0.2564 0.8905 -0.3759
vn 0.2542 -0.6793 0.6885
vn 0.3220 -0.9467 0.0067
vn 0.3220 -0.9298 -0.1781
vn 1.0000 -0.0009 0.0006
vn 0.3223 0.0063 0.9466
vn 0.3220 -0.1784 0.9298
vn 0.3240 0.7829 -0.5310
vn 0.3238 0.8717 -0.3679
vn 0.3227 -0.6741 -0.6645
vn 0.3227 -0.5314 -0.7832
vn 0.3220 -0.3566 0.8770
vn 0.3217 -0.5209 0.7907
vn 0.3239 0.9267 -0.1907
vn 0.3236 0.9462 -0.0062
vn 0.3231 -0.3685 -0.8717
vn 0.3233 -0.1913 -0.9268
vn 0.3236 0.9292 0.1785
vn 0.3234 0.8765 0.3565
vn 0.3217 -0.7837 0.5313
vn 0.3217 -0.8723 0.3683
vn 0.3234 -0.0068 -0.9462
vn 0.3236 0.1781 -0.9293
vn 0.3232 0.7903 0.5206
vn 0.3230 0.6736 0.6648
vn 0.3219 -0.9273 0.1912
vn 0.3237 0.3559 -0.8767
vn 0.3239 0.5202 -0.7903
vn 0.3228 0.5311 0.7834
vn 0.3226 0.3677 0.8722
vn 0.3223 0.1905 0.9273
vn 0.3237 0.6644 -0.6736
vn 0.3218 -0.6650 0.6740
vn 0.0005 0.7156 -0.6985
vn -0.0004 0.7138 -0.7004
vn 0.0002 0.7149 -0.6992
vn 0.0006 0.7159 -0.6982
vn 0.0006 0.7160 -0.6981
vn -0.0003 0.7147 -0.6994
vn -0.0026 -0.6906 0.7233
vn -0.0017 -0.6887 0.7250
vn -0.0020 -0.6894 0.7244
vn -0.0016 -0.6883 0.7254
vn -0.0025 -0.6896 0.7242
vn 1.0000 -0.0008 0.0006
vn 0.0010 0.7119 0.7023
vn -0.9952 -0.0689 -0.0694
vn 1.0000 -0.0008 0.0005
vn 0.6281 0.5536 0.5468
vn -0.0004 0.6985 0.7156
vn -0.0013 0.7004 0.7138
vn -0.0007 0.6992 0.7150
vn -0.0003 0.6981 0.7160
vn -0.0012 0.6994 0.7147
vn -0.0017 -0.7233 -0.6906
vn -0.0008 -0.7250 -0.6887
vn -0.0011 -0.7244 -0.6894
vn -0.0007 -0.7254 -0.6883
vn -0.0016 -0.7242 -0.6896
vn 1.0000 -0.0010 0.0007
vn -0.0003 -0.7023 0.7119
vn -0.9951 0.0697 -0.0704
vn 1.0000 -0.0009 0.0007
vn 0.6271 -0.5472 0.5544
vn 0.0011 0.7022 -0.7119
vn -0.0008 -0.6985 -0.7156
vn -0.0017 -0.7004 -0.7138
vn -0.0011 -0.6992 -0.7150
vn -0.0007 -0.6982 -0.7159
vn -0.0007 -0.6981 -0.7160
vn -0.0016 -0.6994 -0.7147
vn -0.0013 0.7233 0.6906
vn -0.0003 0.7250 0.6887
vn -0.0007 0.7244 0.6894
vn -0.0003 0.7254 0.6883
vn -0.0012 0.7242 0.6896
vn -0.0011 -0.7022 0.7119
vn 0.0019 0.7022 -0.7119
vn -0.9953 -0.0680 0.0691
vn 0.6288 0.5460 -0.5536
vn -1.0000 0.0010 -0.0008
vn 1.0000 -0.0008 0.0007
vn 0.0011 0.7022 -0.7120
vn 0.0012 0.7148 -0.6993
vn 0.0013 0.7138 -0.7003
vn 0.0012 0.7141 -0.7000
vn 0.0004 0.7143 -0.6998
vn 0.0005 0.7144 -0.6997
vn -0.0002 0.7136 -0.7006
vn -0.0009 -0.6905 0.7233
vn -0.0010 -0.6895 0.7243
vn -0.0010 -0.6902 0.7236
vn -0.0017 -0.6899 0.7239
vn -0.0018 -0.6900 0.7238
vn -0.0024 -0.6908 0.7230
vn -0.0002 -0.7118 -0.7024
vn 0.0021 0.7121 0.7021
vn -0.9961 -0.0620 -0.0627
vn 0.5028 0.6151 0.6074
vn -0.0002 -0.7118 -0.7023
vn 0.0002 0.6993 0.7149
vn 0.0004 0.7003 0.7139
vn 0.0003 0.7000 0.7141
vn -0.0005 0.6998 0.7143
vn -0.0004 0.6997 0.7144
vn -0.0011 0.7006 0.7136
vn 0.0000 -0.7233 -0.6905
vn -0.0002 -0.7243 -0.6895
vn -0.0001 -0.7236 -0.6902
vn -0.0008 -0.7239 -0.6899
vn -0.0009 -0.7238 -0.6900
vn -0.0015 -0.7230 -0.6908
vn 0.0008 -0.7024 0.7118
vn -0.9960 0.0630 -0.0636
vn 1.0000 -0.0010 0.0008
vn 0.5016 -0.6076 0.6157
vn -0.0011 -0.7148 0.6993
vn -0.0009 -0.7138 0.7003
vn -0.0010 -0.7141 0.7000
vn -0.0018 -0.7143 0.6998
vn -0.0017 -0.7144 0.6997
vn -0.0024 -0.7136 0.7006
vn 0.0013 0.6905 -0.7233
vn 0.0012 0.6895 -0.7243
vn 0.0012 0.6902 -0.7236
vn 0.0005 0.6899 -0.7239
vn 0.0004 0.6900 -0.7238
vn -0.0002 0.6908 -0.7230
vn -1.0000 0.0008 -0.0005
vn 1.0000 -0.0010 0.0006
vn 0.0017 -0.7120 -0.7022
vn -0.9961 0.0637 0.0615
vn 0.5024 -0.6159 -0.6068
vn 0.0002 0.7120 0.7022
vn -0.0001 -0.6993 -0.7149
vn 0.0000 -0.7003 -0.7138
vn 0.0000 -0.7000 -0.7141
vn -0.0009 -0.6998 -0.7143
vn -0.0008 -0.6997 -0.7144
vn -0.0015 -0.7006 -0.7136
vn 0.0004 0.7233 0.6905
vn 0.0003 0.7243 0.6895
vn 0.0004 0.7236 0.6902
vn -0.0004 0.7239 0.6899
vn -0.0004 0.7238 0.6900
vn -0.0011 0.7230 0.6908
vn 0.0030 0.7023 -0.7119
vn -0.9962 -0.0611 0.0623
vn 0.5036 0.6066 -0.6152
vn 0.0002 0.7119 0.7022
vn 1.0000 -0.0008 0.0008
vn -0.0011 -0.7022 0.7120
vn 0.0123 -0.7155 0.6985
vn 0.0113 -0.7138 0.7003
vn 0.0119 -0.7149 0.6991
vn 0.0123 -0.7159 0.6981
vn 0.0124 -0.7159 0.6981
vn 0.0114 -0.7147 0.6994
vn -0.0138 0.6905 -0.7232
vn -0.0128 0.6887 -0.7250
vn -0.0131 0.6893 -0.7243
vn -0.0127 0.6883 -0.7254
vn -0.0127 0.6883 -0.7253
vn -0.0136 0.6896 -0.7241
vn -0.9998 -0.0210 -0.0031
vn 0.9998 0.0211 0.0032
vn -0.0172 0.7117 0.7023
vn 0.0181 -0.7115 -0.7024
vn -0.9966 0.0487 0.0657
vn -0.0172 0.7116 0.7024
vn 0.6412 -0.5406 -0.5446
vn -0.0173 0.7117 0.7023
# 530 vertex normals

vt 0.2529 0.7215 0.0000
vt 0.2576 0.7335 0.0000
vt 0.2488 0.7360 0.0000
vt 0.2465 0.7233 0.0000
vt 0.4657 0.9258 0.0000
vt 0.4649 0.9581 0.0000
vt 0.4586 0.9578 0.0000
vt 0.4594 0.9259 0.0000
vt 0.2069 0.6895 0.0000
vt 0.1940 0.6892 0.0000
vt 0.1951 0.6802 0.0000
vt 0.2076 0.6829 0.0000
vt 0.2598 0.6625 0.0000
vt 0.2672 0.6519 0.0000
vt 0.2741 0.6579 0.0000
vt 0.2649 0.6668 0.0000
vt 0.2334 0.7231 0.0000
vt 0.2306 0.7356 0.0000
vt 0.2219 0.7328 0.0000
vt 0.2271 0.7210 0.0000
vt 0.2720 0.6778 0.0000
vt 0.2839 0.6732 0.0000
vt 0.2864 0.6819 0.0000
vt 0.2738 0.6842 0.0000
vt 0.2163 0.7135 0.0000
vt 0.2070 0.7224 0.0000
vt 0.2014 0.7152 0.0000
vt 0.2122 0.7083 0.0000
vt 0.2129 0.6709 0.0000
vt 0.2024 0.6635 0.0000
vt 0.2083 0.6566 0.0000
vt 0.2172 0.6658 0.0000
vt 0.2735 0.6974 0.0000
vt 0.2860 0.7001 0.0000
vt 0.2832 0.7088 0.0000
vt 0.2715 0.7036 0.0000
vt 0.2283 0.6588 0.0000
vt 0.2236 0.6468 0.0000
vt 0.2324 0.6443 0.0000
vt 0.2346 0.6570 0.0000
vt 0.2639 0.7144 0.0000
vt 0.2729 0.7237 0.0000
vt 0.2657 0.7293 0.0000
vt 0.2588 0.7185 0.0000
vt 0.2092 0.7024 0.0000
vt 0.1972 0.7071 0.0000
vt 0.1948 0.6983 0.0000
vt 0.2074 0.6961 0.0000
vt 0.2478 0.6572 0.0000
vt 0.2505 0.6447 0.0000
vt 0.2592 0.6475 0.0000
vt 0.2541 0.6593 0.0000
vt 0.2397 0.7367 0.0000
vt 0.2399 0.7238 0.0000
vt 0.2798 0.6650 0.0000
vt 0.2690 0.6720 0.0000
vt 0.1979 0.6715 0.0000
vt 0.2097 0.6766 0.0000
vt 0.2140 0.7283 0.0000
vt 0.2213 0.7178 0.0000
vt 0.2871 0.6910 0.0000
vt 0.2743 0.6908 0.0000
vt 0.2155 0.6509 0.0000
vt 0.2224 0.6618 0.0000
vt 0.2788 0.7167 0.0000
vt 0.2682 0.7094 0.0000
vt 0.2415 0.6436 0.0000
vt 0.2412 0.6564 0.0000
vt 0.5933 0.9288 0.0000
vt 0.5926 0.9607 0.0000
vt 0.5864 0.9607 0.0000
vt 0.5871 0.9286 0.0000
vt 0.5283 0.9275 0.0000
vt 0.5276 0.9589 0.0000
vt 0.5221 0.9584 0.0000
vt 0.5228 0.9278 0.0000
vt 0.4761 0.9268 0.0000
vt 0.4754 0.9575 0.0000
vt 0.4701 0.9575 0.0000
vt 0.4708 0.9266 0.0000
vt 0.6065 0.9291 0.0000
vt 0.6058 0.9611 0.0000
vt 0.5991 0.9609 0.0000
vt 0.5998 0.9290 0.0000
vt 0.5404 0.9274 0.0000
vt 0.5397 0.9595 0.0000
vt 0.5335 0.9592 0.0000
vt 0.5342 0.9274 0.0000
vt 0.4876 0.9264 0.0000
vt 0.4868 0.9583 0.0000
vt 0.4812 0.9578 0.0000
vt 0.4819 0.9267 0.0000
vt 0.5522 0.9281 0.0000
vt 0.5515 0.9593 0.0000
vt 0.5459 0.9595 0.0000
vt 0.5466 0.9276 0.0000
vt 0.4348 0.9255 0.0000
vt 0.4340 0.9570 0.0000
vt 0.4286 0.9564 0.0000
vt 0.4294 0.9258 0.0000
vt 0.5000 0.9267 0.0000
vt 0.4992 0.9586 0.0000
vt 0.4930 0.9585 0.0000
vt 0.4938 0.9265 0.0000
vt 0.5637 0.9287 0.0000
vt 0.5629 0.9593 0.0000
vt 0.5573 0.9592 0.0000
vt 0.5581 0.9285 0.0000
vt 0.4470 0.9255 0.0000
vt 0.4462 0.9576 0.0000
vt 0.4400 0.9574 0.0000
vt 0.4408 0.9255 0.0000
vt 0.5114 0.9275 0.0000
vt 0.5107 0.9582 0.0000
vt 0.5048 0.9583 0.0000
vt 0.5056 0.9272 0.0000
vt 0.5750 0.9286 0.0000
vt 0.5742 0.9601 0.0000
vt 0.5688 0.9595 0.0000
vt 0.5695 0.9289 0.0000
vt 0.4524 0.9577 0.0000
vt 0.4531 0.9258 0.0000
vt 0.5802 0.9604 0.0000
vt 0.5809 0.9286 0.0000
vt 0.5163 0.9583 0.0000
vt 0.5170 0.9277 0.0000
vt 0.4232 0.9255 0.0000
vt 0.4225 0.9563 0.0000
vt 0.4158 0.9563 0.0000
vt 0.4166 0.9253 0.0000
vt 0.0940 0.0027 0.0000
vt 0.0990 0.0027 0.0000
vt 0.1000 0.2814 0.0000
vt 0.0950 0.2814 0.0000
vt 0.0891 0.0027 0.0000
vt 0.0901 0.2814 0.0000
vt 0.0841 0.0027 0.0000
vt 0.0851 0.2814 0.0000
vt 0.0792 0.0027 0.0000
vt 0.0802 0.2814 0.0000
vt 0.0742 0.0027 0.0000
vt 0.0753 0.2814 0.0000
vt 0.0693 0.0027 0.0000
vt 0.0703 0.2814 0.0000
vt 0.0643 0.0027 0.0000
vt 0.0654 0.2814 0.0000
vt 0.0594 0.0027 0.0000
vt 0.0604 0.2814 0.0000
vt 0.0544 0.0027 0.0000
vt 0.0555 0.2814 0.0000
vt 0.0495 0.0027 0.0000
vt 0.0505 0.2814 0.0000
vt 0.0445 0.0027 0.0000
vt 0.0456 0.2814 0.0000
vt 0.0396 0.0027 0.0000
vt 0.0406 0.2814 0.0000
vt 0.0346 0.0027 0.0000
vt 0.0357 0.2814 0.0000
vt 0.0297 0.0028 0.0000
vt 0.0307 0.2814 0.0000
vt 0.0247 0.0028 0.0000
vt 0.0258 0.2814 0.0000
vt 0.0198 0.0028 0.0000
vt 0.0208 0.2814 0.0000
vt 0.0148 0.0028 0.0000
vt 0.0159 0.2814 0.0000
vt 0.1683 0.0023 0.0000
vt 0.1733 0.0022 0.0000
vt 0.1742 0.2814 0.0000
vt 0.1693 0.2814 0.0000
vt 0.1634 0.0023 0.0000
vt 0.1643 0.2814 0.0000
vt 0.1584 0.0023 0.0000
vt 0.1593 0.2814 0.0000
vt 0.1535 0.0024 0.0000
vt 0.1544 0.2814 0.0000
vt 0.1485 0.0024 0.0000
vt 0.1494 0.2814 0.0000
vt 0.1436 0.0024 0.0000
vt 0.1445 0.2814 0.0000
vt 0.1386 0.0025 0.0000
vt 0.1395 0.2814 0.0000
vt 0.1336 0.0025 0.0000
vt 0.1346 0.2814 0.0000
vt 0.1287 0.0025 0.0000
vt 0.1296 0.2814 0.0000
vt 0.1237 0.0026 0.0000
vt 0.1247 0.2814 0.0000
vt 0.1188 0.0026 0.0000
vt 0.1198 0.2814 0.0000
vt 0.1138 0.0026 0.0000
vt 0.1148 0.2814 0.0000
vt 0.1089 0.0026 0.0000
vt 0.1099 0.2814 0.0000
vt 0.1438 0.4665 0.0000
vt 0.1488 0.4665 0.0000
vt 0.1039 0.0027 0.0000
vt 0.1049 0.2814 0.0000
vt 0.1186 0.5498 0.0000
vt 0.1190 0.4663 0.0000
vt 0.1240 0.4663 0.0000
vt 0.1235 0.5498 0.0000
vt 0.0395 0.4661 0.0000
vt 0.0445 0.4661 0.0000
vt 0.1289 0.4664 0.0000
vt 0.1339 0.4664 0.0000
vt 0.0792 0.4661 0.0000
vt 0.0842 0.4661 0.0000
vt 0.0246 0.4660 0.0000
vt 0.0296 0.4660 0.0000
vt 0.1140 0.4663 0.0000
vt 0.1687 0.4666 0.0000
vt 0.1736 0.4667 0.0000
vt 0.0643 0.4661 0.0000
vt 0.0693 0.4661 0.0000
vt 0.0991 0.4662 0.0000
vt 0.1041 0.4662 0.0000
vt 0.1538 0.4665 0.0000
vt 0.1587 0.4666 0.0000
vt 0.0494 0.4661 0.0000
vt 0.0544 0.4661 0.0000
vt 0.1389 0.4664 0.0000
vt 0.0892 0.4662 0.0000
vt 0.0942 0.4662 0.0000
vt 0.0346 0.4661 0.0000
vt 0.0743 0.4661 0.0000
vt 0.0197 0.4660 0.0000
vt 0.1091 0.4662 0.0000
vt 0.1637 0.4666 0.0000
vt 0.0594 0.4661 0.0000
vt 0.0147 0.4660 0.0000
vt 0.1084 0.7738 0.0000
vt 0.1087 0.5498 0.0000
vt 0.1136 0.5498 0.0000
vt 0.1133 0.7738 0.0000
vt 0.0143 0.5497 0.0000
vt 0.0193 0.5497 0.0000
vt 0.0689 0.5497 0.0000
vt 0.0739 0.5497 0.0000
vt 0.1285 0.5498 0.0000
vt 0.1335 0.5498 0.0000
vt 0.0789 0.5497 0.0000
vt 0.0838 0.5497 0.0000
vt 0.0242 0.5497 0.0000
vt 0.0292 0.5497 0.0000
vt 0.1384 0.5499 0.0000
vt 0.1434 0.5499 0.0000
vt 0.0888 0.5497 0.0000
vt 0.0938 0.5498 0.0000
vt 0.0342 0.5497 0.0000
vt 0.0391 0.5497 0.0000
vt 0.1483 0.5499 0.0000
vt 0.1533 0.5499 0.0000
vt 0.0441 0.5497 0.0000
vt 0.0491 0.5497 0.0000
vt 0.1037 0.5498 0.0000
vt 0.1583 0.5499 0.0000
vt 0.1632 0.5499 0.0000
vt 0.0540 0.5497 0.0000
vt 0.0590 0.5497 0.0000
vt 0.1682 0.5500 0.0000
vt 0.1731 0.5500 0.0000
vt 0.0640 0.5497 0.0000
vt 0.0987 0.5498 0.0000
vt 0.0986 0.7738 0.0000
vt 0.1035 0.7738 0.0000
vt 0.1627 0.7741 0.0000
vt 0.1676 0.7742 0.0000
vt 0.0592 0.7739 0.0000
vt 0.0641 0.7739 0.0000
vt 0.1183 0.7738 0.0000
vt 0.1232 0.7739 0.0000
vt 0.0147 0.7743 0.0000
vt 0.0197 0.7743 0.0000
vt 0.0690 0.7739 0.0000
vt 0.0740 0.7738 0.0000
vt 0.1281 0.7739 0.0000
vt 0.1331 0.7739 0.0000
vt 0.0789 0.7738 0.0000
vt 0.0838 0.7738 0.0000
vt 0.0246 0.7742 0.0000
vt 0.0296 0.7742 0.0000
vt 0.1380 0.7739 0.0000
vt 0.1429 0.7740 0.0000
vt 0.0887 0.7738 0.0000
vt 0.0937 0.7738 0.0000
vt 0.0345 0.7741 0.0000
vt 0.0394 0.7741 0.0000
vt 0.1528 0.7740 0.0000
vt 0.1478 0.7740 0.0000
vt 0.0444 0.7740 0.0000
vt 0.0493 0.7740 0.0000
vt 0.1577 0.7741 0.0000
vt 0.0542 0.7739 0.0000
vt 0.1725 0.7742 0.0000
vt 0.1316 0.8812 0.0000
vt 0.1363 0.8812 0.0000
vt 0.1210 0.9044 0.0000
vt 0.1221 0.8809 0.0000
vt 0.1268 0.8811 0.0000
vt 0.1252 0.9047 0.0000
vt 0.0844 0.8806 0.0000
vt 0.0891 0.8806 0.0000
vt 0.0325 0.8819 0.0000
vt 0.0373 0.8817 0.0000
vt 0.1411 0.8813 0.0000
vt 0.1458 0.8814 0.0000
vt 0.0938 0.8807 0.0000
vt 0.0985 0.8807 0.0000
vt 0.0420 0.8815 0.0000
vt 0.0467 0.8814 0.0000
vt 0.1032 0.8808 0.0000
vt 0.1505 0.8815 0.0000
vt 0.1553 0.8817 0.0000
vt 0.0514 0.8813 0.0000
vt 0.0561 0.8812 0.0000
vt 0.1079 0.8808 0.0000
vt 0.1126 0.8808 0.0000
vt 0.1600 0.8818 0.0000
vt 0.1648 0.8820 0.0000
vt 0.0609 0.8810 0.0000
vt 0.0656 0.8809 0.0000
vt 0.1174 0.8809 0.0000
vt 0.0181 0.8826 0.0000
vt 0.0229 0.8823 0.0000
vt 0.0703 0.8808 0.0000
vt 0.0750 0.8807 0.0000
vt 0.0797 0.8807 0.0000
vt 0.0277 0.8821 0.0000
vt 0.1697 0.8822 0.0000
vt 0.1123 0.9252 0.0000
vt 0.1125 0.9042 0.0000
vt 0.1167 0.9043 0.0000
vt 0.1160 0.9252 0.0000
vt 0.0758 0.9039 0.0000
vt 0.0800 0.9038 0.0000
vt 0.0261 0.9065 0.0000
vt 0.0304 0.9059 0.0000
vt 0.1323 0.9049 0.0000
vt 0.1366 0.9048 0.0000
vt 0.0843 0.9038 0.0000
vt 0.0885 0.9038 0.0000
vt 0.0347 0.9054 0.0000
vt 0.0390 0.9050 0.0000
vt 0.1409 0.9047 0.0000
vt 0.1452 0.9047 0.0000
vt 0.0928 0.9040 0.0000
vt 0.0971 0.9043 0.0000
vt 0.0432 0.9047 0.0000
vt 0.0474 0.9045 0.0000
vt 0.1014 0.9047 0.0000
vt 0.1494 0.9049 0.0000
vt 0.1537 0.9051 0.0000
vt 0.0517 0.9044 0.0000
vt 0.0559 0.9044 0.0000
vt 0.1082 0.9042 0.0000
vt 0.1580 0.9055 0.0000
vt 0.1622 0.9060 0.0000
vt 0.0630 0.9048 0.0000
vt 0.0673 0.9044 0.0000
vt 0.0218 0.9073 0.0000
vt 0.0716 0.9041 0.0000
vt 0.1295 0.9051 0.0000
vt 0.1039 0.9043 0.0000
vt 0.0587 0.9053 0.0000
vt 0.1665 0.9066 0.0000
vt 0.1071 0.9503 0.0000
vt 0.1050 0.9254 0.0000
vt 0.1087 0.9252 0.0000
vt 0.1099 0.9500 0.0000
vt 0.1591 0.9267 0.0000
vt 0.1627 0.9273 0.0000
vt 0.0695 0.9254 0.0000
vt 0.0731 0.9250 0.0000
vt 0.1196 0.9254 0.0000
vt 0.1233 0.9257 0.0000
vt 0.0768 0.9248 0.0000
vt 0.0804 0.9247 0.0000
vt 0.0303 0.9274 0.0000
vt 0.0339 0.9267 0.0000
vt 0.1337 0.9261 0.0000
vt 0.1374 0.9258 0.0000
vt 0.0841 0.9247 0.0000
vt 0.0877 0.9248 0.0000
vt 0.0375 0.9261 0.0000
vt 0.0411 0.9257 0.0000
vt 0.1411 0.9256 0.0000
vt 0.1447 0.9256 0.0000
vt 0.0914 0.9250 0.0000
vt 0.0950 0.9254 0.0000
vt 0.0447 0.9254 0.0000
vt 0.0483 0.9252 0.0000
vt 0.0987 0.9259 0.0000
vt 0.1483 0.9257 0.0000
vt 0.1519 0.9259 0.0000
vt 0.0519 0.9251 0.0000
vt 0.0556 0.9252 0.0000
vt 0.1555 0.9262 0.0000
vt 0.0658 0.9259 0.0000
vt 0.0267 0.9282 0.0000
vt 0.1269 0.9261 0.0000
vt 0.0622 0.9265 0.0000
vt 0.1462 0.9692 0.0000
vt 0.1449 0.9499 0.0000
vt 0.1476 0.9499 0.0000
vt 0.1480 0.9691 0.0000
vt 0.1502 0.9500 0.0000
vt 0.1529 0.9502 0.0000
vt 0.0672 0.9509 0.0000
vt 0.0699 0.9504 0.0000
vt 0.1126 0.9499 0.0000
vt 0.1153 0.9499 0.0000
vt 0.1555 0.9505 0.0000
vt 0.1581 0.9509 0.0000
vt 0.0726 0.9500 0.0000
vt 0.0753 0.9497 0.0000
vt 0.1180 0.9500 0.0000
vt 0.1208 0.9502 0.0000
vt 0.0780 0.9495 0.0000
vt 0.0808 0.9494 0.0000
vt 0.0357 0.9510 0.0000
vt 0.0383 0.9505 0.0000
vt 0.1368 0.9507 0.0000
vt 0.1395 0.9504 0.0000
vt 0.0835 0.9494 0.0000
vt 0.0862 0.9496 0.0000
vt 0.0409 0.9501 0.0000
vt 0.0436 0.9498 0.0000
vt 0.1422 0.9501 0.0000
vt 0.0890 0.9498 0.0000
vt 0.0917 0.9502 0.0000
vt 0.0463 0.9496 0.0000
vt 0.0489 0.9496 0.0000
vt 0.0944 0.9507 0.0000
vt 0.0516 0.9496 0.0000
vt 0.0544 0.9498 0.0000
vt 0.0331 0.9517 0.0000
vt 0.1235 0.9506 0.0000
vt 0.1463 0.9865 0.0000
vt 0.1426 0.9697 0.0000
vt 0.1444 0.9694 0.0000
vt 0.1472 0.9863 0.0000
vt 0.0484 0.9689 0.0000
vt 0.0503 0.9691 0.0000
vt 0.1098 0.9699 0.0000
vt 0.1116 0.9696 0.0000
vt 0.1497 0.9690 0.0000
vt 0.1515 0.9691 0.0000
vt 0.0718 0.9701 0.0000
vt 0.0736 0.9697 0.0000
vt 0.1134 0.9695 0.0000
vt 0.1152 0.9695 0.0000
vt 0.1533 0.9692 0.0000
vt 0.1551 0.9694 0.0000
vt 0.0754 0.9694 0.0000
vt 0.0772 0.9692 0.0000
vt 0.1170 0.9695 0.0000
vt 0.1188 0.9696 0.0000
vt 0.0790 0.9691 0.0000
vt 0.0809 0.9690 0.0000
vt 0.0396 0.9696 0.0000
vt 0.0413 0.9693 0.0000
vt 0.1408 0.9700 0.0000
vt 0.0827 0.9691 0.0000
vt 0.0845 0.9692 0.0000
vt 0.0431 0.9691 0.0000
vt 0.0449 0.9689 0.0000
vt 0.0863 0.9695 0.0000
vt 0.0882 0.9698 0.0000
vt 0.0466 0.9689 0.0000
vt 0.0900 0.9702 0.0000
vt 0.0521 0.9693 0.0000
vt 0.0378 0.9699 0.0000
vt 0.1206 0.9698 0.0000
vt 0.1163 0.9945 0.0000
vt 0.1172 0.9866 0.0000
vt 0.1181 0.9867 0.0000
vt 0.1168 0.9946 0.0000
vt 0.0826 0.9864 0.0000
vt 0.0835 0.9865 0.0000
vt 0.0453 0.9859 0.0000
vt 0.0463 0.9859 0.0000
vt 0.1482 0.9862 0.0000
vt 0.1491 0.9861 0.0000
vt 0.0472 0.9860 0.0000
vt 0.0481 0.9861 0.0000
vt 0.1126 0.9867 0.0000
vt 0.1135 0.9866 0.0000
vt 0.1500 0.9861 0.0000
vt 0.1510 0.9861 0.0000
vt 0.0761 0.9869 0.0000
vt 0.0770 0.9867 0.0000
vt 0.1144 0.9865 0.0000
vt 0.1154 0.9865 0.0000
vt 0.1519 0.9861 0.0000
vt 0.1528 0.9862 0.0000
vt 0.0779 0.9865 0.0000
vt 0.0789 0.9864 0.0000
vt 0.1163 0.9865 0.0000
vt 0.0798 0.9863 0.0000
vt 0.0807 0.9863 0.0000
vt 0.0425 0.9862 0.0000
vt 0.0435 0.9861 0.0000
vt 0.1454 0.9867 0.0000
vt 0.0817 0.9863 0.0000
vt 0.0444 0.9860 0.0000
vt 0.0845 0.9867 0.0000
vt 0.0854 0.9870 0.0000
vt 0.0490 0.9862 0.0000
vt 0.0416 0.9864 0.0000
vt 0.1154 0.9944 0.0000
vt 0.1158 0.9944 0.0000
vt 0.1155 0.9973 0.0000
vt 0.0807 0.9942 0.0000
vt 0.0812 0.9942 0.0000
vt 0.0447 0.9940 0.0000
vt 0.0452 0.9940 0.0000
vt 0.1481 0.9943 0.0000
vt 0.1486 0.9942 0.0000
vt 0.0817 0.9943 0.0000
vt 0.0822 0.9944 0.0000
vt 0.0457 0.9939 0.0000
vt 0.0461 0.9939 0.0000
vt 0.1491 0.9941 0.0000
vt 0.1496 0.9941 0.0000
vt 0.0466 0.9940 0.0000
vt 0.0471 0.9941 0.0000
vt 0.1140 0.9946 0.0000
vt 0.1143 0.9945 0.0000
vt 0.1501 0.9940 0.0000
vt 0.1506 0.9940 0.0000
vt 0.0782 0.9947 0.0000
vt 0.0787 0.9945 0.0000
vt 0.1149 0.9944 0.0000
vt 0.1511 0.9941 0.0000
vt 0.1516 0.9942 0.0000
vt 0.0792 0.9943 0.0000
vt 0.0797 0.9942 0.0000
vt 0.0802 0.9942 0.0000
vt 0.0443 0.9941 0.0000
vt 0.1477 0.9945 0.0000
vt 0.0826 0.9945 0.0000
vt 0.0831 0.9947 0.0000
vt 0.0476 0.9941 0.0000
vt 0.0438 0.9943 0.0000
vt 0.0460 0.9971 0.0000
vt 0.0807 0.9980 0.0000
vt 0.1497 0.9975 0.0000
vt 0.2637 0.1235 0.0000
vt 0.2571 0.1227 0.0000
vt 0.2643 0.0898 0.0000
vt 0.2703 0.1229 0.0000
vt 0.2584 0.0566 0.0000
vt 0.2650 0.0561 0.0000
vt 0.2715 0.0568 0.0000
vt 0.2825 0.1181 0.0000
vt 0.2766 0.1211 0.0000
vt 0.2508 0.1206 0.0000
vt 0.2451 0.1174 0.0000
vt 0.2400 0.1131 0.0000
vt 0.2360 0.1079 0.0000
vt 0.2920 0.1090 0.0000
vt 0.2877 0.1140 0.0000
vt 0.2973 0.0970 0.0000
vt 0.2952 0.1033 0.0000
vt 0.2330 0.1021 0.0000
vt 0.2312 0.0957 0.0000
vt 0.2462 0.0614 0.0000
vt 0.2520 0.0584 0.0000
vt 0.2778 0.0589 0.0000
vt 0.2836 0.0621 0.0000
vt 0.2886 0.0664 0.0000
vt 0.2927 0.0716 0.0000
vt 0.2957 0.0775 0.0000
vt 0.2975 0.0838 0.0000
vt 0.2980 0.0904 0.0000
vt 0.2367 0.0705 0.0000
vt 0.2410 0.0655 0.0000
vt 0.2314 0.0825 0.0000
vt 0.2334 0.0763 0.0000
vt 0.2306 0.0891 0.0000
vt 0.5194 0.2844 0.0000
vt 0.6002 0.3496 0.0000
vt 0.6003 0.3637 0.0000
vt 0.5087 0.3639 0.0000
vt 0.5087 0.3584 0.0000
vt 0.4848 0.3584 0.0000
vt 0.4080 0.2837 0.0000
vt 0.4848 0.3640 0.0000
vt 0.4156 0.3638 0.0000
vt 0.6015 0.2033 0.0000
vt 0.6013 0.2174 0.0000
vt 0.5194 0.2819 0.0000
vt 0.5096 0.2077 0.0000
vt 0.5097 0.2022 0.0000
vt 0.4080 0.2812 0.0000
vt 0.4858 0.2075 0.0000
vt 0.4166 0.2013 0.0000
vt 0.4858 0.2019 0.0000
vt 0.5030 0.3696 0.0000
vt 0.5028 0.3639 0.0000
vt 0.5087 0.3694 0.0000
vt 0.4848 0.3695 0.0000
vt 0.4906 0.3641 0.0000
vt 0.4904 0.3697 0.0000
vt 0.6003 0.3692 0.0000
vt 0.4056 0.2839 0.0000
vt 0.4101 0.3642 0.0000
vt 0.4156 0.3693 0.0000
vt 0.6143 0.3532 0.0000
vt 0.6113 0.3575 0.0000
vt 0.6035 0.3453 0.0000
vt 0.5209 0.2825 0.0000
vt 0.4858 0.2020 0.0000
vt 0.5098 0.2022 0.0000
vt 0.5210 0.1089 0.0000
vt 0.6027 0.1732 0.0000
vt 0.6029 0.1873 0.0000
vt 0.5114 0.1887 0.0000
vt 0.5113 0.1832 0.0000
vt 0.4873 0.1835 0.0000
vt 0.4095 0.1096 0.0000
vt 0.4874 0.1891 0.0000
vt 0.4179 0.1897 0.0000
vt 0.6020 0.0267 0.0000
vt 0.6020 0.0408 0.0000
vt 0.5210 0.1065 0.0000
vt 0.5102 0.0323 0.0000
vt 0.5102 0.0268 0.0000
vt 0.4095 0.1071 0.0000
vt 0.4864 0.0323 0.0000
vt 0.4171 0.0271 0.0000
vt 0.4864 0.0268 0.0000
vt 0.5057 0.1944 0.0000
vt 0.5054 0.1887 0.0000
vt 0.5114 0.1942 0.0000
vt 0.4874 0.1947 0.0000
vt 0.4931 0.1892 0.0000
vt 0.4930 0.1948 0.0000
vt 0.6030 0.1927 0.0000
vt 0.4071 0.1098 0.0000
vt 0.4124 0.1902 0.0000
vt 0.4179 0.1953 0.0000
vt 0.6167 0.1767 0.0000
vt 0.6137 0.1809 0.0000
vt 0.6060 0.1689 0.0000
vt 0.5225 0.1070 0.0000
vt 0.4863 0.0269 0.0000
vt 0.5103 0.0268 0.0000
vt 0.5170 0.4586 0.0000
vt 0.5978 0.5235 0.0000
vt 0.5979 0.5376 0.0000
vt 0.5065 0.5380 0.0000
vt 0.5065 0.5324 0.0000
vt 0.4827 0.5325 0.0000
vt 0.4058 0.4580 0.0000
vt 0.4827 0.5381 0.0000
vt 0.4135 0.5379 0.0000
vt 0.5988 0.3776 0.0000
vt 0.5987 0.3917 0.0000
vt 0.5170 0.4562 0.0000
vt 0.5072 0.3822 0.0000
vt 0.5073 0.3766 0.0000
vt 0.4058 0.4556 0.0000
vt 0.4834 0.3819 0.0000
vt 0.4143 0.3757 0.0000
vt 0.4834 0.3763 0.0000
vt 0.5008 0.5436 0.0000
vt 0.5006 0.5379 0.0000
vt 0.5066 0.5434 0.0000
vt 0.4826 0.5436 0.0000
vt 0.4884 0.5383 0.0000
vt 0.4882 0.5439 0.0000
vt 0.5979 0.5430 0.0000
vt 0.4034 0.4582 0.0000
vt 0.4080 0.5384 0.0000
vt 0.4135 0.5434 0.0000
vt 0.6119 0.5271 0.0000
vt 0.6089 0.5314 0.0000
vt 0.6011 0.5193 0.0000
vt 0.5185 0.4567 0.0000
vt 0.4835 0.3764 0.0000
vt 0.5072 0.3767 0.0000
vt 0.5192 0.8605 0.0000
vt 0.5185 0.8319 0.0000
vt 0.5548 0.8315 0.0000
vt 0.5554 0.8600 0.0000
vt 0.5953 0.8310 0.0000
vt 0.5547 0.8276 0.0000
vt 0.5952 0.8264 0.0000
vt 0.5540 0.7995 0.0000
vt 0.5184 0.8280 0.0000
vt 0.5178 0.7999 0.0000
vt 0.4781 0.8286 0.0000
vt 0.4782 0.8332 0.0000
vt 0.3618 0.6943 0.0000
vt 0.3619 0.7226 0.0000
vt 0.3260 0.7223 0.0000
vt 0.3258 0.6940 0.0000
vt 0.2857 0.7221 0.0000
vt 0.3260 0.7262 0.0000
vt 0.2857 0.7266 0.0000
vt 0.3254 0.7545 0.0000
vt 0.3619 0.7265 0.0000
vt 0.3614 0.7548 0.0000
vt 0.4022 0.7268 0.0000
vt 0.4022 0.7223 0.0000
vt 0.3666 0.5289 0.0000
vt 0.3667 0.5571 0.0000
vt 0.3305 0.5568 0.0000
vt 0.3304 0.5287 0.0000
vt 0.2900 0.5555 0.0000
vt 0.3304 0.5607 0.0000
vt 0.2899 0.5601 0.0000
vt 0.3305 0.5893 0.0000
vt 0.3667 0.5610 0.0000
vt 0.3667 0.5896 0.0000
vt 0.4063 0.5620 0.0000
vt 0.4064 0.5575 0.0000
vt 0.3318 0.0847 0.0000
vt 0.3318 0.0564 0.0000
vt 0.3677 0.0560 0.0000
vt 0.3677 0.0843 0.0000
vt 0.4080 0.0563 0.0000
vt 0.3677 0.0521 0.0000
vt 0.4080 0.0517 0.0000
vt 0.3671 0.0238 0.0000
vt 0.3318 0.0525 0.0000
vt 0.3311 0.0242 0.0000
vt 0.2915 0.0524 0.0000
vt 0.2916 0.0570 0.0000
vt 0.2672 0.8546 0.0000
vt 0.4017 0.9264 0.0000
vt 0.4019 0.9306 0.0000
vt 0.3177 0.9336 0.0000
vt 0.3176 0.9285 0.0000
vt 0.2958 0.9292 0.0000
vt 0.2232 0.8560 0.0000
vt 0.2960 0.9343 0.0000
vt 0.2332 0.9364 0.0000
vt 0.3967 0.7685 0.0000
vt 0.3968 0.7726 0.0000
vt 0.2671 0.8524 0.0000
vt 0.3130 0.7756 0.0000
vt 0.3129 0.7705 0.0000
vt 0.2232 0.8537 0.0000
vt 0.2912 0.7761 0.0000
vt 0.2281 0.7728 0.0000
vt 0.2911 0.7711 0.0000
vt 0.3115 0.9390 0.0000
vt 0.3112 0.9327 0.0000
vt 0.3179 0.9387 0.0000
vt 0.2961 0.9392 0.0000
vt 0.3008 0.9342 0.0000
vt 0.3010 0.9389 0.0000
vt 0.4021 0.9356 0.0000
vt 0.2210 0.8562 0.0000
vt 0.2283 0.9370 0.0000
vt 0.2334 0.9414 0.0000
vt 0.4078 0.9238 0.0000
vt 0.4055 0.9283 0.0000
vt 0.4040 0.9220 0.0000
vt 0.2682 0.8526 0.0000
vt 0.3129 0.7706 0.0000
vt 0.3547 0.4168 0.0000
vt 0.2154 0.3336 0.0000
vt 0.2153 0.3294 0.0000
vt 0.3046 0.3303 0.0000
vt 0.3045 0.3357 0.0000
vt 0.3277 0.3359 0.0000
vt 0.4016 0.4173 0.0000
vt 0.3277 0.3306 0.0000
vt 0.3948 0.3312 0.0000
vt 0.2138 0.5034 0.0000
vt 0.2138 0.4989 0.0000
vt 0.3547 0.4192 0.0000
vt 0.3029 0.4990 0.0000
vt 0.3028 0.5044 0.0000
vt 0.4016 0.4196 0.0000
vt 0.3260 0.4993 0.0000
vt 0.3930 0.5055 0.0000
vt 0.3260 0.5047 0.0000
vt 0.3113 0.3249 0.0000
vt 0.3113 0.3315 0.0000
vt 0.3047 0.3249 0.0000
vt 0.3278 0.3252 0.0000
vt 0.3223 0.3305 0.0000
vt 0.3224 0.3252 0.0000
vt 0.2153 0.3241 0.0000
vt 0.4040 0.4171 0.0000
vt 0.4001 0.3308 0.0000
vt 0.3948 0.3259 0.0000
vt 0.2073 0.3362 0.0000
vt 0.2108 0.3304 0.0000
vt 0.2124 0.3388 0.0000
vt 0.3535 0.4188 0.0000
vt 0.3260 0.5046 0.0000
vt 0.3029 0.5043 0.0000
vt 0.4510 0.8243 0.0000
vt 0.5947 0.9173 0.0000
vt 0.5945 0.9220 0.0000
vt 0.5004 0.9174 0.0000
vt 0.5007 0.9117 0.0000
vt 0.4762 0.9105 0.0000
vt 0.4016 0.8219 0.0000
vt 0.4760 0.9162 0.0000
vt 0.4053 0.9128 0.0000
vt 0.6021 0.7389 0.0000
vt 0.6019 0.7435 0.0000
vt 0.4511 0.8217 0.0000
vt 0.5085 0.7400 0.0000
vt 0.5088 0.7344 0.0000
vt 0.4017 0.8194 0.0000
vt 0.4844 0.7388 0.0000
vt 0.4142 0.7296 0.0000
vt 0.4847 0.7331 0.0000
vt 0.5045 0.7361 0.0000
vt 0.5028 0.7320 0.0000
vt 0.5088 0.7288 0.0000
vt 0.4850 0.7275 0.0000
vt 0.4908 0.7277 0.0000
vt 0.4906 0.7334 0.0000
vt 0.6024 0.7333 0.0000
vt 0.3993 0.8190 0.0000
vt 0.4087 0.7289 0.0000
vt 0.4145 0.7240 0.0000
vt 0.6060 0.7415 0.0000
vt 0.6085 0.7464 0.0000
vt 0.6044 0.7485 0.0000
vt 0.4522 0.8240 0.0000
vt 0.5004 0.9173 0.0000
vt 0.3558 0.2257 0.0000
vt 0.2106 0.1446 0.0000
vt 0.2105 0.1400 0.0000
vt 0.3021 0.1385 0.0000
vt 0.3021 0.1440 0.0000
vt 0.3258 0.1436 0.0000
vt 0.4039 0.2249 0.0000
vt 0.3257 0.1381 0.0000
vt 0.3945 0.1369 0.0000
vt 0.2132 0.3182 0.0000
vt 0.2132 0.3136 0.0000
vt 0.3558 0.2281 0.0000
vt 0.3047 0.3114 0.0000
vt 0.3048 0.3170 0.0000
vt 0.4040 0.2274 0.0000
vt 0.3285 0.3111 0.0000
vt 0.3974 0.3157 0.0000
vt 0.3286 0.3166 0.0000
vt 0.3083 0.1327 0.0000
vt 0.3086 0.1389 0.0000
vt 0.3020 0.1330 0.0000
vt 0.3256 0.1326 0.0000
vt 0.3201 0.1382 0.0000
vt 0.3200 0.1327 0.0000
vt 0.2104 0.1345 0.0000
vt 0.4063 0.2247 0.0000
vt 0.3999 0.1364 0.0000
vt 0.3944 0.1314 0.0000
vt 0.2039 0.1472 0.0000
vt 0.2065 0.1424 0.0000
vt 0.2080 0.1494 0.0000
vt 0.3546 0.2278 0.0000
vt 0.3286 0.3165 0.0000
vt 0.3048 0.3169 0.0000
vt 0.2772 0.6305 0.0000
vt 0.2767 0.6025 0.0000
vt 0.3121 0.6021 0.0000
vt 0.3127 0.6301 0.0000
vt 0.3518 0.6016 0.0000
vt 0.3121 0.5983 0.0000
vt 0.3517 0.5971 0.0000
vt 0.3114 0.5707 0.0000
vt 0.2766 0.5987 0.0000
vt 0.2759 0.5711 0.0000
vt 0.2369 0.5993 0.0000
vt 0.2370 0.6038 0.0000
vt 0.2892 0.1994 0.0000
vt 0.2893 0.2271 0.0000
vt 0.2541 0.2269 0.0000
vt 0.2539 0.1991 0.0000
vt 0.2147 0.2263 0.0000
vt 0.2541 0.2307 0.0000
vt 0.2146 0.2308 0.0000
vt 0.2535 0.2584 0.0000
vt 0.2893 0.2310 0.0000
vt 0.2888 0.2587 0.0000
vt 0.3287 0.2312 0.0000
vt 0.3287 0.2268 0.0000
vt 0.3558 0.6227 0.0000
vt 0.3559 0.6503 0.0000
vt 0.3204 0.6500 0.0000
vt 0.3203 0.6224 0.0000
vt 0.2807 0.6489 0.0000
vt 0.3203 0.6538 0.0000
vt 0.2806 0.6534 0.0000
vt 0.3204 0.6818 0.0000
vt 0.3559 0.6541 0.0000
vt 0.3559 0.6821 0.0000
vt 0.3956 0.6553 0.0000
vt 0.3957 0.6508 0.0000
vt 0.2514 0.4468 0.0000
vt 0.2514 0.4191 0.0000
vt 0.2866 0.4187 0.0000
vt 0.2866 0.4464 0.0000
vt 0.3261 0.4190 0.0000
vt 0.2866 0.4148 0.0000
vt 0.3261 0.4145 0.0000
vt 0.2860 0.3871 0.0000
vt 0.2514 0.4153 0.0000
vt 0.2507 0.3875 0.0000
vt 0.2120 0.4148 0.0000
vt 0.2120 0.4193 0.0000
vt 0.5142 0.6329 0.0000
vt 0.5950 0.6979 0.0000
vt 0.5950 0.7119 0.0000
vt 0.5037 0.7123 0.0000
vt 0.5037 0.7067 0.0000
vt 0.4798 0.7068 0.0000
vt 0.4030 0.6324 0.0000
vt 0.4798 0.7124 0.0000
vt 0.4107 0.7122 0.0000
vt 0.5960 0.5519 0.0000
vt 0.5958 0.5660 0.0000
vt 0.5142 0.6305 0.0000
vt 0.5043 0.5565 0.0000
vt 0.5044 0.5509 0.0000
vt 0.4030 0.6299 0.0000
vt 0.4805 0.5562 0.0000
vt 0.4114 0.5500 0.0000
vt 0.4806 0.5506 0.0000
vt 0.4979 0.7179 0.0000
vt 0.4978 0.7123 0.0000
vt 0.5037 0.7177 0.0000
vt 0.4798 0.7179 0.0000
vt 0.4856 0.7126 0.0000
vt 0.4854 0.7182 0.0000
vt 0.5951 0.7174 0.0000
vt 0.4005 0.6325 0.0000
vt 0.4052 0.7127 0.0000
vt 0.4107 0.7177 0.0000
vt 0.6091 0.7014 0.0000
vt 0.6060 0.7057 0.0000
vt 0.5983 0.6936 0.0000
vt 0.5157 0.6310 0.0000
vt 0.4806 0.5507 0.0000
vt 0.5044 0.5510 0.0000
# 947 texture coords

o AIM120
g AIM120
f 1/1/1 2/2/1 3/3/2 
f 3/3/2 4/4/2 1/1/1 
f 5/5/3 6/6/3 1/7/4 
f 1/7/4 7/8/4 5/5/3 
f 8/9/5 9/10/5 10/11/1 
f 10/11/1 11/12/1 8/9/5 
f 12/13/6 13/14/6 14/15/2 
f 14/15/2 15/16/2 12/13/6 
f 16/17/1 17/18/1 18/19/2 
f 18/19/2 19/20/2 16/17/1 
f 20/21/1 21/22/1 22/23/1 
f 22/23/1 23/24/1 20/21/1 
f 24/25/2 25/26/2 26/27/1 
f 26/27/1 27/28/1 24/25/2 
f 28/29/2 29/30/2 30/31/1 
f 30/31/1 31/32/1 28/29/2 
f 32/33/2 33/34/2 34/35/2 
f 34/35/2 35/36/2 32/33/2 
f 36/37/1 37/38/1 38/39/1 
f 38/39/1 39/40/1 36/37/1 
f 40/41/1 41/42/1 42/43/1 
f 42/43/1 6/44/1 40/41/1 
f 43/45/1 44/46/1 45/47/2 
f 45/47/2 46/48/2 43/45/1 
f 47/49/1 48/50/1 49/51/2 
f 49/51/2 50/52/2 47/49/1 
f 4/4/2 3/3/2 51/53/1 
f 51/53/1 52/54/1 4/4/2 
f 15/16/2 14/15/2 53/55/2 
f 53/55/2 54/56/2 15/16/2 
f 11/12/1 10/11/1 55/57/1 
f 55/57/1 56/58/1 11/12/1 
f 19/20/2 18/19/2 57/59/1 
f 57/59/1 58/60/1 19/20/2 
f 23/24/1 22/23/1 59/61/2 
f 59/61/2 60/62/2 23/24/1 
f 31/32/1 30/31/1 61/63/2 
f 61/63/2 62/64/2 31/32/1 
f 35/36/2 34/35/2 63/65/2 
f 63/65/2 64/66/2 35/36/2 
f 39/40/1 38/39/1 65/67/1 
f 65/67/1 66/68/1 39/40/1 
f 6/44/1 42/43/1 2/2/1 
f 2/2/1 1/1/1 6/44/1 
f 46/48/2 45/47/2 9/10/5 
f 9/10/5 8/9/5 46/48/2 
f 50/52/2 49/51/2 13/14/6 
f 13/14/6 12/13/6 50/52/2 
f 52/54/1 51/53/1 17/18/1 
f 17/18/1 16/17/1 52/54/1 
f 54/56/2 53/55/2 21/22/1 
f 21/22/1 20/21/1 54/56/2 
f 56/58/1 55/57/1 29/30/2 
f 29/30/2 28/29/2 56/58/1 
f 58/60/1 57/59/1 25/26/2 
f 25/26/2 24/25/2 58/60/1 
f 60/62/2 59/61/2 33/34/2 
f 33/34/2 32/33/2 60/62/2 
f 62/64/2 61/63/2 37/38/1 
f 37/38/1 36/37/1 62/64/2 
f 64/66/2 63/65/2 41/42/1 
f 41/42/1 40/41/1 64/66/2 
f 27/28/1 26/27/1 44/46/1 
f 44/46/1 43/45/1 27/28/1 
f 66/68/1 65/67/1 48/50/1 
f 48/50/1 47/49/1 66/68/1 
f 67/69/7 46/70/7 8/71/8 
f 8/71/8 68/72/8 67/69/7 
f 69/73/9 50/74/9 12/75/10 
f 12/75/10 70/76/10 69/73/9 
f 71/77/11 64/78/11 40/79/12 
f 40/79/12 72/80/12 71/77/11 
f 73/81/13 27/82/13 43/83/14 
f 43/83/14 74/84/14 73/81/13 
f 75/85/15 66/86/15 47/87/16 
f 47/87/16 76/88/16 75/85/15 
f 77/89/17 32/90/17 35/91/18 
f 35/91/18 78/92/18 77/89/17 
f 79/93/19 36/94/19 39/95/20 
f 39/95/20 80/96/20 79/93/19 
f 81/97/21 19/98/21 58/99/22 
f 58/99/22 82/100/22 81/97/21 
f 83/101/23 23/102/23 60/103/24 
f 60/103/24 84/104/24 83/101/23 
f 85/105/25 31/106/25 62/107/26 
f 62/107/26 86/108/26 85/105/25 
f 87/109/27 52/110/27 16/111/28 
f 16/111/28 88/112/28 87/109/27 
f 89/113/29 54/114/29 20/115/30 
f 20/115/30 90/116/30 89/113/29 
f 91/117/31 56/118/31 28/119/32 
f 28/119/32 92/120/32 91/117/31 
f 7/8/4 1/7/4 4/121/33 
f 4/121/33 93/122/33 7/8/4 
f 68/72/8 8/71/8 11/123/34 
f 11/123/34 94/124/34 68/72/8 
f 70/76/10 12/75/10 15/125/35 
f 15/125/35 95/126/35 70/76/10 
f 72/80/12 40/79/12 6/6/3 
f 6/6/3 5/5/3 72/80/12 
f 74/84/14 43/83/14 46/70/7 
f 46/70/7 67/69/7 74/84/14 
f 76/88/16 47/87/16 50/74/9 
f 50/74/9 69/73/9 76/88/16 
f 78/92/18 35/91/18 64/78/11 
f 64/78/11 71/77/11 78/92/18 
f 96/127/36 24/128/36 27/129/13 
f 27/129/13 73/130/13 96/127/36 
f 80/96/20 39/95/20 66/86/15 
f 66/86/15 75/85/15 80/96/20 
f 82/100/22 58/99/22 24/128/36 
f 24/128/36 96/127/36 82/100/22 
f 84/104/24 60/103/24 32/90/17 
f 32/90/17 77/89/17 84/104/24 
f 86/108/26 62/107/26 36/94/19 
f 36/94/19 79/93/19 86/108/26 
f 88/112/28 16/111/28 19/98/21 
f 19/98/21 81/97/21 88/112/28 
f 90/116/30 20/115/30 23/102/23 
f 23/102/23 83/101/23 90/116/30 
f 92/120/32 28/119/32 31/106/25 
f 31/106/25 85/105/25 92/120/32 
f 93/122/33 4/121/33 52/110/27 
f 52/110/27 87/109/27 93/122/33 
f 95/126/35 15/125/35 54/114/29 
f 54/114/29 89/113/29 95/126/35 
f 94/124/34 11/123/34 56/118/31 
f 56/118/31 91/117/31 94/124/34 
f 26/131/37 25/132/38 97/133/35 
f 97/133/35 98/134/39 26/131/37 
f 44/135/40 26/131/37 98/134/39 
f 98/134/39 99/136/41 44/135/40 
f 45/137/42 44/135/40 99/136/41 
f 99/136/41 100/138/43 45/137/42 
f 9/139/44 45/137/42 100/138/43 
f 100/138/43 101/140/45 9/139/44 
f 10/141/46 9/139/44 101/140/45 
f 101/140/45 102/142/47 10/141/46 
f 55/143/48 10/141/46 102/142/47 
f 102/142/47 103/144/49 55/143/48 
f 29/145/50 55/143/48 103/144/49 
f 103/144/49 104/146/51 29/145/50 
f 30/147/52 29/145/50 104/146/51 
f 104/146/51 105/148/53 30/147/52 
f 61/149/54 30/147/52 105/148/53 
f 105/148/53 106/150/55 61/149/54 
f 37/151/56 61/149/54 106/150/55 
f 106/150/55 107/152/57 37/151/56 
f 38/153/58 37/151/56 107/152/57 
f 107/152/57 108/154/59 38/153/58 
f 65/155/60 38/153/58 108/154/59 
f 108/154/59 109/156/61 65/155/60 
f 48/157/62 65/155/60 109/156/61 
f 109/156/61 110/158/63 48/157/62 
f 49/159/64 48/157/62 110/158/63 
f 110/158/63 111/160/65 49/159/64 
f 13/161/66 49/159/64 111/160/65 
f 111/160/65 112/162/22 13/161/66 
f 14/163/67 13/161/66 112/162/22 
f 112/162/22 113/164/36 14/163/67 
f 53/165/68 14/163/67 113/164/36 
f 113/164/36 114/166/69 53/165/68 
f 21/167/70 53/168/68 114/169/69 
f 114/169/69 115/170/71 21/167/70 
f 22/171/72 21/167/70 115/170/71 
f 115/170/71 116/172/73 22/171/72 
f 59/173/74 22/171/72 116/172/73 
f 116/172/73 117/174/75 59/173/74 
f 33/175/76 59/173/74 117/174/75 
f 117/174/75 118/176/77 33/175/76 
f 34/177/78 33/175/76 118/176/77 
f 118/176/77 119/178/79 34/177/78 
f 63/179/80 34/177/78 119/178/79 
f 119/178/79 120/180/81 63/179/80 
f 41/181/82 63/179/80 120/180/81 
f 120/180/81 121/182/83 41/181/82 
f 42/183/84 41/181/82 121/182/83 
f 121/182/83 122/184/85 42/183/84 
f 2/185/86 42/183/84 122/184/85 
f 122/184/85 123/186/87 2/185/86 
f 3/187/88 2/185/86 123/186/87 
f 123/186/87 124/188/89 3/187/88 
f 51/189/90 3/187/88 124/188/89 
f 124/188/89 125/190/91 51/189/90 
f 17/191/92 51/189/90 125/190/91 
f 125/190/91 126/192/93 17/191/92 
f 18/193/94 17/191/92 126/192/93 
f 126/192/93 127/194/95 18/193/94 
f 128/195/96 120/180/81 119/178/79 
f 119/178/79 129/196/97 128/195/96 
f 25/132/38 57/197/98 130/198/99 
f 130/198/99 97/133/35 25/132/38 
f 57/197/98 18/193/94 127/194/95 
f 127/194/95 130/198/99 57/197/98 
f 131/199/15 132/200/100 133/201/101 
f 133/201/101 134/202/20 131/199/15 
f 135/203/102 109/156/61 108/154/59 
f 108/154/59 136/204/103 135/203/102 
f 137/205/104 123/186/87 122/184/85 
f 122/184/85 138/206/105 137/205/104 
f 139/207/106 101/140/45 100/138/43 
f 100/138/43 140/208/107 139/207/106 
f 141/209/108 112/162/22 111/160/65 
f 111/160/65 142/210/109 141/209/108 
f 143/211/110 126/192/93 125/190/91 
f 125/190/91 132/200/100 143/211/110 
f 144/212/111 115/170/71 114/169/69 
f 114/169/69 145/213/112 144/212/111 
f 146/214/113 104/146/51 103/144/49 
f 103/144/49 147/215/114 146/214/113 
f 148/216/115 97/133/35 130/198/99 
f 130/198/99 149/217/116 148/216/115 
f 150/218/117 118/176/77 117/174/75 
f 117/174/75 151/219/118 150/218/117 
f 152/220/119 107/152/57 106/150/55 
f 106/150/55 153/221/120 152/220/119 
f 154/222/121 121/182/83 120/180/81 
f 120/180/81 128/195/96 154/222/121 
f 155/223/122 99/136/41 98/134/39 
f 98/134/39 156/224/123 155/223/122 
f 157/225/124 110/158/63 109/156/61 
f 109/156/61 135/203/102 157/225/124 
f 133/201/101 124/188/89 123/186/87 
f 123/186/87 137/205/104 133/201/101 
f 158/226/125 102/142/47 101/140/45 
f 101/140/45 139/207/106 158/226/125 
f 159/227/126 113/164/36 112/162/22 
f 112/162/22 141/209/108 159/227/126 
f 160/228/127 127/194/95 126/192/93 
f 126/192/93 143/211/110 160/228/127 
f 161/229/128 116/172/73 115/170/71 
f 115/170/71 144/212/111 161/229/128 
f 156/224/123 98/134/39 97/133/35 
f 97/133/35 148/216/115 156/224/123 
f 162/230/129 105/148/53 104/146/51 
f 104/146/51 146/214/113 162/230/129 
f 129/196/97 119/178/79 118/176/77 
f 118/176/77 150/218/117 129/196/97 
f 136/204/103 108/154/59 107/152/57 
f 107/152/57 152/220/119 136/204/103 
f 138/206/105 122/184/85 121/182/83 
f 121/182/83 154/222/121 138/206/105 
f 140/208/107 100/138/43 99/136/41 
f 99/136/41 155/223/122 140/208/107 
f 142/210/109 111/160/65 110/158/63 
f 110/158/63 157/225/124 142/210/109 
f 132/200/100 125/190/91 124/188/89 
f 124/188/89 133/201/101 132/200/100 
f 145/231/112 114/166/69 113/164/36 
f 113/164/36 159/227/126 145/231/112 
f 147/215/114 103/144/49 102/142/47 
f 102/142/47 158/226/125 147/215/114 
f 149/217/116 130/198/99 127/194/95 
f 127/194/95 160/228/127 149/217/116 
f 151/219/118 117/174/75 116/172/73 
f 116/172/73 161/229/128 151/219/118 
f 153/221/120 106/150/55 105/148/53 
f 105/148/53 162/230/129 153/221/120 
f 163/232/130 164/233/9 165/234/16 
f 165/234/16 166/235/131 163/232/130 
f 167/236/132 145/231/112 159/227/126 
f 159/227/126 168/237/36 167/236/132 
f 169/238/133 147/215/114 158/226/125 
f 158/226/125 170/239/17 169/238/133 
f 171/240/19 137/205/104 138/206/105 
f 138/206/105 172/241/26 171/240/19 
f 173/242/24 139/207/106 140/208/107 
f 140/208/107 174/243/23 173/242/24 
f 175/244/22 141/209/108 142/210/109 
f 142/210/109 176/245/134 175/244/22 
f 177/246/25 154/222/121 128/195/96 
f 128/195/96 178/247/32 177/246/25 
f 179/248/30 155/223/122 156/224/123 
f 156/224/123 180/249/135 179/248/30 
f 181/250/28 157/225/124 135/203/102 
f 135/203/102 182/251/27 181/250/28 
f 183/252/136 129/196/97 150/218/117 
f 150/218/117 184/253/34 183/252/136 
f 185/254/33 136/204/103 152/220/119 
f 152/220/119 186/255/4 185/254/33 
f 187/256/10 149/217/116 160/228/127 
f 160/228/127 164/233/9 187/256/10 
f 188/257/8 151/219/118 161/229/128 
f 161/229/128 189/258/7 188/257/8 
f 190/259/3 153/221/120 162/230/129 
f 162/230/129 191/260/12 190/259/3 
f 165/234/16 143/211/110 132/200/100 
f 132/200/100 131/199/15 165/234/16 
f 192/261/14 144/212/111 145/213/112 
f 145/213/112 167/262/132 192/261/14 
f 193/263/11 146/214/113 147/215/114 
f 147/215/114 169/238/133 193/263/11 
f 134/202/20 133/201/101 137/205/104 
f 137/205/104 171/240/19 134/202/20 
f 170/239/17 158/226/125 139/207/106 
f 139/207/106 173/242/24 170/239/17 
f 168/237/36 159/227/126 141/209/108 
f 141/209/108 175/244/22 168/237/36 
f 172/241/26 138/206/105 154/222/121 
f 154/222/121 177/246/25 172/241/26 
f 174/243/23 140/208/107 155/223/122 
f 155/223/122 179/248/30 174/243/23 
f 176/245/134 142/210/109 157/225/124 
f 157/225/124 181/250/28 176/245/134 
f 178/247/32 128/195/96 129/196/97 
f 129/196/97 183/252/136 178/247/32 
f 180/249/135 156/224/123 148/216/115 
f 148/216/115 194/264/35 180/249/135 
f 182/251/27 135/203/102 136/204/103 
f 136/204/103 185/254/33 182/251/27 
f 194/264/35 148/216/115 149/217/116 
f 149/217/116 187/256/10 194/264/35 
f 184/253/34 150/218/117 151/219/118 
f 151/219/118 188/257/8 184/253/34 
f 186/255/4 152/220/119 153/221/120 
f 153/221/120 190/259/3 186/255/4 
f 164/233/9 160/228/127 143/211/110 
f 143/211/110 165/234/16 164/233/9 
f 189/258/7 161/229/128 144/212/111 
f 144/212/111 192/261/14 189/258/7 
f 191/260/12 162/230/129 146/214/113 
f 146/214/113 193/263/11 191/260/12 
f 195/265/137 194/264/35 187/256/10 
f 187/256/10 196/266/138 195/265/137 
f 197/267/139 189/258/7 192/261/14 
f 192/261/14 198/268/140 197/267/139 
f 199/269/141 191/260/12 193/263/11 
f 193/263/11 200/270/142 199/269/141 
f 201/271/143 131/199/15 134/202/20 
f 134/202/20 202/272/144 201/271/143 
f 203/273/145 167/236/132 168/237/36 
f 168/237/36 204/274/146 203/273/145 
f 205/275/147 169/238/133 170/239/17 
f 170/239/17 206/276/148 205/275/147 
f 207/277/149 171/240/19 172/241/26 
f 172/241/26 208/278/150 207/277/149 
f 209/279/151 173/242/24 174/243/23 
f 174/243/23 210/280/152 209/279/151 
f 211/281/153 175/244/22 176/245/134 
f 176/245/134 212/282/154 211/281/153 
f 213/283/155 177/246/25 178/247/32 
f 178/247/32 214/284/156 213/283/155 
f 215/285/157 179/248/30 180/249/135 
f 180/249/135 216/286/158 215/285/157 
f 217/287/159 181/250/28 182/251/27 
f 182/251/27 218/288/160 217/287/159 
f 219/289/161 220/290/162 183/252/136 
f 183/252/136 184/253/34 219/289/161 
f 221/291/163 185/254/33 186/255/4 
f 186/255/4 222/292/164 221/291/163 
f 196/266/138 187/256/10 164/233/9 
f 164/233/9 163/232/130 196/266/138 
f 223/293/165 188/257/8 189/258/7 
f 189/258/7 197/267/139 223/293/165 
f 224/294/166 190/259/3 191/260/12 
f 191/260/12 199/269/141 224/294/166 
f 166/235/131 165/234/16 131/199/15 
f 131/199/15 201/271/143 166/235/131 
f 198/268/140 192/261/14 167/262/132 
f 167/262/132 203/295/145 198/268/140 
f 200/270/142 193/263/11 169/238/133 
f 169/238/133 205/275/147 200/270/142 
f 202/272/144 134/202/20 171/240/19 
f 171/240/19 207/277/149 202/272/144 
f 206/276/148 170/239/17 173/242/24 
f 173/242/24 209/279/151 206/276/148 
f 204/274/146 168/237/36 175/244/22 
f 175/244/22 211/281/153 204/274/146 
f 208/278/150 172/241/26 177/246/25 
f 177/246/25 213/283/155 208/278/150 
f 210/280/152 174/243/23 179/248/30 
f 179/248/30 215/285/157 210/280/152 
f 212/282/154 176/245/134 181/250/28 
f 181/250/28 217/287/159 212/282/154 
f 216/286/158 180/249/135 194/264/35 
f 194/264/35 195/265/137 216/286/158 
f 218/288/160 182/251/27 185/254/33 
f 185/254/33 221/291/163 218/288/160 
f 219/289/161 184/253/34 188/257/8 
f 188/257/8 223/293/165 219/289/161 
f 222/292/164 186/255/4 190/259/3 
f 190/259/3 224/294/166 222/292/164 
f 183/252/136 220/290/162 214/284/156 
f 214/284/156 178/247/32 183/252/136 
f 225/296/167 208/278/150 213/283/155 
f 213/283/155 226/297/168 225/296/167 
f 227/298/169 228/299/170 229/300/171 
f 229/300/171 230/301/172 227/298/169 
f 231/302/173 210/280/152 215/285/157 
f 215/285/157 232/303/174 231/302/173 
f 233/304/175 212/282/154 217/287/159 
f 217/287/159 234/305/176 233/304/175 
f 235/306/177 214/284/156 220/290/162 
f 220/290/162 236/307/178 235/306/177 
f 237/308/179 216/286/158 195/265/137 
f 195/265/137 238/309/180 237/308/179 
f 239/310/181 218/288/160 221/291/163 
f 221/291/163 240/311/182 239/310/181 
f 238/309/180 195/265/137 196/266/138 
f 196/266/138 241/312/183 238/309/180 
f 242/313/184 219/289/161 223/293/165 
f 223/293/165 243/314/185 242/313/184 
f 244/315/186 222/292/164 224/294/166 
f 224/294/166 245/316/187 244/315/186 
f 246/317/188 163/232/130 166/235/131 
f 166/235/131 247/318/189 246/317/188 
f 248/319/190 197/267/139 198/268/140 
f 198/268/140 249/320/191 248/319/190 
f 250/321/192 199/269/141 200/270/142 
f 200/270/142 251/322/193 250/321/192 
f 252/323/194 201/271/143 202/272/144 
f 202/272/144 228/299/170 252/323/194 
f 253/324/195 203/273/145 204/274/146 
f 204/274/146 254/325/196 253/324/195 
f 255/326/197 205/275/147 206/276/148 
f 206/276/148 256/327/198 255/326/197 
f 229/300/171 207/277/149 208/278/150 
f 208/278/150 225/296/167 229/300/171 
f 257/328/199 209/279/151 210/280/152 
f 210/280/152 231/302/173 257/328/199 
f 258/329/200 211/281/153 212/282/154 
f 212/282/154 233/304/175 258/329/200 
f 226/297/168 213/283/155 214/284/156 
f 214/284/156 235/306/177 226/297/168 
f 232/303/174 215/285/157 216/286/158 
f 216/286/158 237/308/179 232/303/174 
f 234/305/176 217/287/159 218/288/160 
f 218/288/160 239/310/181 234/305/176 
f 236/307/178 220/290/162 219/289/161 
f 219/289/161 242/313/184 236/307/178 
f 240/311/182 221/291/163 222/292/164 
f 222/292/164 244/315/186 240/311/182 
f 241/312/183 196/266/138 163/232/130 
f 163/232/130 246/317/188 241/312/183 
f 243/314/185 223/293/165 197/267/139 
f 197/267/139 248/319/190 243/314/185 
f 245/316/187 224/294/166 199/269/141 
f 199/269/141 250/321/192 245/316/187 
f 247/318/189 166/235/131 201/271/143 
f 201/271/143 252/323/194 247/318/189 
f 249/320/191 198/268/140 203/295/145 
f 203/295/145 253/330/195 249/320/191 
f 251/322/193 200/270/142 205/275/147 
f 205/275/147 255/326/197 251/322/193 
f 228/299/170 202/272/144 207/277/149 
f 207/277/149 229/300/171 228/299/170 
f 256/327/198 206/276/148 209/279/151 
f 209/279/151 257/328/199 256/327/198 
f 254/325/196 204/274/146 211/281/153 
f 211/281/153 258/329/200 254/325/196 
f 259/331/201 260/332/202 261/333/203 
f 261/333/203 262/334/204 259/331/201 
f 263/335/205 256/327/198 257/328/199 
f 257/328/199 264/336/206 263/335/205 
f 265/337/207 254/325/196 258/329/200 
f 258/329/200 266/338/208 265/337/207 
f 267/339/209 225/296/167 226/297/168 
f 226/297/168 268/340/210 267/339/209 
f 269/341/211 231/302/173 232/303/174 
f 232/303/174 270/342/212 269/341/211 
f 271/343/213 233/304/175 234/305/176 
f 234/305/176 272/344/214 271/343/213 
f 273/345/215 235/306/177 236/307/178 
f 236/307/178 274/346/216 273/345/215 
f 275/347/217 237/308/179 238/309/180 
f 238/309/180 276/348/218 275/347/217 
f 277/349/219 239/310/181 240/311/182 
f 240/311/182 278/350/220 277/349/219 
f 276/348/218 238/309/180 241/312/183 
f 241/312/183 279/351/221 276/348/218 
f 280/352/222 242/313/184 243/314/185 
f 243/314/185 281/353/223 280/352/222 
f 282/354/224 244/315/186 245/316/187 
f 245/316/187 283/355/225 282/354/224 
f 284/356/226 246/317/188 247/318/189 
f 247/318/189 260/332/202 284/356/226 
f 285/357/227 248/319/190 249/320/191 
f 249/320/191 286/358/228 285/357/227 
f 287/359/229 250/321/192 251/322/193 
f 251/322/193 288/360/230 287/359/229 
f 261/333/203 252/323/194 228/299/170 
f 228/299/170 227/298/169 261/333/203 
f 289/361/231 253/324/195 254/325/196 
f 254/325/196 265/337/207 289/361/231 
f 290/362/232 255/326/197 256/327/198 
f 256/327/198 263/335/205 290/362/232 
f 230/301/172 229/300/171 225/296/167 
f 225/296/167 267/363/209 230/301/172 
f 264/336/206 257/328/199 231/302/173 
f 231/302/173 269/341/211 264/336/206 
f 266/338/208 258/329/200 233/304/175 
f 233/304/175 271/343/213 266/338/208 
f 268/340/210 226/297/168 235/306/177 
f 235/306/177 273/345/215 268/340/210 
f 270/342/212 232/303/174 237/308/179 
f 237/308/179 275/347/217 270/342/212 
f 272/344/214 234/305/176 239/310/181 
f 239/310/181 277/349/219 272/344/214 
f 274/346/216 236/307/178 242/313/184 
f 242/313/184 280/352/222 274/346/216 
f 278/350/220 240/311/182 244/315/186 
f 244/315/186 282/354/224 278/350/220 
f 279/364/221 241/312/183 246/317/188 
f 246/317/188 284/356/226 279/364/221 
f 281/353/223 243/314/185 248/319/190 
f 248/319/190 285/357/227 281/353/223 
f 283/365/225 245/316/187 250/321/192 
f 250/321/192 287/359/229 283/365/225 
f 260/332/202 247/318/189 252/323/194 
f 252/323/194 261/333/203 260/332/202 
f 286/358/228 249/320/191 253/330/195 
f 253/330/195 289/366/231 286/358/228 
f 288/360/230 251/322/193 255/326/197 
f 255/326/197 290/362/232 288/360/230 
f 291/367/233 292/368/234 293/369/235 
f 293/369/235 294/370/236 291/367/233 
f 295/371/237 286/358/228 289/366/231 
f 289/366/231 296/372/238 295/371/237 
f 297/373/239 288/360/230 290/362/232 
f 290/362/232 298/374/240 297/373/239 
f 299/375/241 227/298/169 230/301/172 
f 230/301/172 300/376/242 299/375/241 
f 301/377/243 263/335/205 264/336/206 
f 264/336/206 302/378/244 301/377/243 
f 303/379/245 265/337/207 266/338/208 
f 266/338/208 304/380/246 303/379/245 
f 305/381/247 267/339/209 268/340/210 
f 268/340/210 306/382/248 305/381/247 
f 307/383/249 269/341/211 270/342/212 
f 270/342/212 308/384/250 307/383/249 
f 309/385/251 271/343/213 272/344/214 
f 272/344/214 310/386/252 309/385/251 
f 311/387/253 273/345/215 274/346/216 
f 274/346/216 312/388/254 311/387/253 
f 313/389/255 275/347/217 276/348/218 
f 276/348/218 314/390/256 313/389/255 
f 315/391/257 277/349/219 278/350/220 
f 278/350/220 316/392/258 315/391/257 
f 314/390/256 276/348/218 279/351/221 
f 279/351/221 292/393/234 314/390/256 
f 317/394/259 280/352/222 281/353/223 
f 281/353/223 318/395/260 317/394/259 
f 319/396/261 282/354/224 283/355/225 
f 283/355/225 320/397/262 319/396/261 
f 293/369/235 284/356/226 260/332/202 
f 260/332/202 259/331/201 293/369/235 
f 321/398/263 285/357/227 286/358/228 
f 286/358/228 295/371/237 321/398/263 
f 322/399/264 287/359/229 288/360/230 
f 288/360/230 297/373/239 322/399/264 
f 262/334/204 261/333/203 227/298/169 
f 227/298/169 299/375/241 262/334/204 
f 296/400/238 289/361/231 265/337/207 
f 265/337/207 303/379/245 296/400/238 
f 298/374/240 290/362/232 263/335/205 
f 263/335/205 301/377/243 298/374/240 
f 300/376/242 230/301/172 267/363/209 
f 267/363/209 305/401/247 300/376/242 
f 302/378/244 264/336/206 269/341/211 
f 269/341/211 307/383/249 302/378/244 
f 304/380/246 266/338/208 271/343/213 
f 271/343/213 309/385/251 304/380/246 
f 306/382/248 268/340/210 273/345/215 
f 273/345/215 311/387/253 306/382/248 
f 308/384/250 270/342/212 275/347/217 
f 275/347/217 313/389/255 308/384/250 
f 310/386/252 272/344/214 277/349/219 
f 277/349/219 315/391/257 310/386/252 
f 312/388/254 274/346/216 280/352/222 
f 280/352/222 317/394/259 312/388/254 
f 316/392/258 278/350/220 282/354/224 
f 282/354/224 319/396/261 316/392/258 
f 292/368/234 279/364/221 284/356/226 
f 284/356/226 293/369/235 292/368/234 
f 318/395/260 281/353/223 285/357/227 
f 285/357/227 321/398/263 318/395/260 
f 320/402/262 283/365/225 287/359/229 
f 287/359/229 322/399/264 320/402/262 
f 323/403/265 324/404/266 325/405/267 
f 325/405/267 326/406/268 323/403/265 
f 327/407/269 318/395/260 321/398/263 
f 321/398/263 328/408/270 327/407/269 
f 329/409/271 320/402/262 322/399/264 
f 322/399/264 330/410/272 329/409/271 
f 331/411/273 259/331/201 262/334/204 
f 262/334/204 332/412/274 331/411/273 
f 333/413/275 295/371/237 296/372/238 
f 296/372/238 334/414/276 333/413/275 
f 335/415/277 297/373/239 298/374/240 
f 298/374/240 336/416/278 335/415/277 
f 337/417/279 299/375/241 300/376/242 
f 300/376/242 338/418/280 337/417/279 
f 339/419/281 301/377/243 302/378/244 
f 302/378/244 340/420/282 339/419/281 
f 341/421/283 303/379/245 304/380/246 
f 304/380/246 342/422/284 341/421/283 
f 343/423/285 305/381/247 306/382/248 
f 306/382/248 344/424/286 343/423/285 
f 345/425/287 307/383/249 308/384/250 
f 308/384/250 346/426/288 345/425/287 
f 347/427/289 309/385/251 310/386/252 
f 310/386/252 348/428/290 347/427/289 
f 349/429/291 311/387/253 312/388/254 
f 312/388/254 324/404/266 349/429/291 
f 350/430/292 313/389/255 314/390/256 
f 314/390/256 351/431/293 350/430/292 
f 352/432/294 315/391/257 316/392/258 
f 316/392/258 353/433/295 352/432/294 
f 351/431/293 314/390/256 292/393/234 
f 292/393/234 291/434/233 351/431/293 
f 325/405/267 317/394/259 318/395/260 
f 318/395/260 327/407/269 325/405/267 
f 354/435/296 319/396/261 320/397/262 
f 320/397/262 329/436/271 354/435/296 
f 294/370/236 293/369/235 259/331/201 
f 259/331/201 331/411/273 294/370/236 
f 328/408/270 321/398/263 295/371/237 
f 295/371/237 333/413/275 328/408/270 
f 330/410/272 322/399/264 297/373/239 
f 297/373/239 335/415/277 330/410/272 
f 332/412/274 262/334/204 299/375/241 
f 299/375/241 337/417/279 332/412/274 
f 334/437/276 296/400/238 303/379/245 
f 303/379/245 341/421/283 334/437/276 
f 336/416/278 298/374/240 301/377/243 
f 301/377/243 339/419/281 336/416/278 
f 338/418/280 300/376/242 305/401/247 
f 305/401/247 343/438/285 338/418/280 
f 340/420/282 302/378/244 307/383/249 
f 307/383/249 345/425/287 340/420/282 
f 342/422/284 304/380/246 309/385/251 
f 309/385/251 347/427/289 342/422/284 
f 344/424/286 306/382/248 311/387/253 
f 311/387/253 349/429/291 344/424/286 
f 346/426/288 308/384/250 313/389/255 
f 313/389/255 350/430/292 346/426/288 
f 348/428/290 310/386/252 315/391/257 
f 315/391/257 352/432/294 348/428/290 
f 324/404/266 312/388/254 317/394/259 
f 317/394/259 325/405/267 324/404/266 
f 353/433/295 316/392/258 319/396/261 
f 319/396/261 354/435/296 353/433/295 
f 355/439/297 356/440/298 357/441/299 
f 357/441/299 358/442/300 355/439/297 
f 359/443/301 353/433/295 354/435/296 
f 354/435/296 360/444/302 359/443/301 
f 361/445/303 291/367/233 294/370/236 
f 294/370/236 362/446/304 361/445/303 
f 363/447/305 327/407/269 328/408/270 
f 328/408/270 364/448/306 363/447/305 
f 365/449/307 329/409/271 330/410/272 
f 330/410/272 366/450/308 365/449/307 
f 367/451/309 331/411/273 332/412/274 
f 332/412/274 368/452/310 367/451/309 
f 369/453/311 333/413/275 334/414/276 
f 334/414/276 370/454/312 369/453/311 
f 371/455/313 335/415/277 336/416/278 
f 336/416/278 372/456/314 371/455/313 
f 373/457/315 337/417/279 338/418/280 
f 338/418/280 374/458/316 373/457/315 
f 375/459/317 339/419/281 340/420/282 
f 340/420/282 376/460/318 375/459/317 
f 377/461/319 341/421/283 342/422/284 
f 342/422/284 378/462/320 377/461/319 
f 379/463/321 343/423/285 344/424/286 
f 344/424/286 356/440/298 379/463/321 
f 380/464/322 345/425/287 346/426/288 
f 346/426/288 381/465/323 380/464/322 
f 382/466/324 347/427/289 348/428/290 
f 348/428/290 383/467/325 382/466/324 
f 357/441/299 349/429/291 324/404/266 
f 324/404/266 323/403/265 357/441/299 
f 384/468/326 350/430/292 351/431/293 
f 351/431/293 385/469/327 384/468/326 
f 386/470/328 352/432/294 353/433/295 
f 353/433/295 359/443/301 386/470/328 
f 385/469/327 351/431/293 291/434/233 
f 291/434/233 361/471/303 385/469/327 
f 326/406/268 325/405/267 327/407/269 
f 327/407/269 363/447/305 326/406/268 
f 360/444/302 354/435/296 329/436/271 
f 329/436/271 365/472/307 360/444/302 
f 362/446/304 294/370/236 331/411/273 
f 331/411/273 367/451/309 362/446/304 
f 364/448/306 328/408/270 333/413/275 
f 333/413/275 369/453/311 364/448/306 
f 366/450/308 330/410/272 335/415/277 
f 335/415/277 371/455/313 366/450/308 
f 368/452/310 332/412/274 337/417/279 
f 337/417/279 373/457/315 368/452/310 
f 370/473/312 334/437/276 341/421/283 
f 341/421/283 377/461/319 370/473/312 
f 372/456/314 336/416/278 339/419/281 
f 339/419/281 375/459/317 372/456/314 
f 374/458/316 338/418/280 343/438/285 
f 343/438/285 379/474/321 374/458/316 
f 376/460/318 340/420/282 345/425/287 
f 345/425/287 380/464/322 376/460/318 
f 378/462/320 342/422/284 347/427/289 
f 347/427/289 382/466/324 378/462/320 
f 356/440/298 344/424/286 349/429/291 
f 349/429/291 357/441/299 356/440/298 
f 381/465/323 346/426/288 350/430/292 
f 350/430/292 384/468/326 381/465/323 
f 383/467/325 348/428/290 352/432/294 
f 352/432/294 386/470/328 383/467/325 
f 387/475/329 388/476/330 389/477/331 
f 389/477/331 390/478/332 387/475/329 
f 391/479/333 381/465/323 384/468/326 
f 384/468/326 392/480/334 391/479/333 
f 393/481/335 383/467/325 386/470/328 
f 386/470/328 394/482/336 393/481/335 
f 395/483/337 323/403/265 326/406/268 
f 326/406/268 396/484/338 395/483/337 
f 397/485/339 359/443/301 360/444/302 
f 360/444/302 398/486/340 397/485/339 
f 399/487/341 361/445/303 362/446/304 
f 362/446/304 400/488/342 399/487/341 
f 401/489/343 363/447/305 364/448/306 
f 364/448/306 402/490/344 401/489/343 
f 403/491/345 365/449/307 366/450/308 
f 366/450/308 404/492/346 403/491/345 
f 405/493/347 367/451/309 368/452/310 
f 368/452/310 406/494/348 405/493/347 
f 407/495/349 369/453/311 370/454/312 
f 370/454/312 408/496/350 407/495/349 
f 409/497/351 371/455/313 372/456/314 
f 372/456/314 410/498/352 409/497/351 
f 411/499/353 373/457/315 374/458/316 
f 374/458/316 388/476/330 411/499/353 
f 412/500/354 375/459/317 376/460/318 
f 376/460/318 413/501/355 412/500/354 
f 414/502/356 377/461/319 378/462/320 
f 378/462/320 415/503/357 414/502/356 
f 389/504/331 379/463/321 356/440/298 
f 356/440/298 355/439/297 389/504/331 
f 416/505/358 380/464/322 381/465/323 
f 381/465/323 391/479/333 416/505/358 
f 417/506/359 382/466/324 383/467/325 
f 383/467/325 393/481/335 417/506/359 
f 358/442/300 357/441/299 323/403/265 
f 323/403/265 395/483/337 358/442/300 
f 392/480/334 384/468/326 385/469/327 
f 385/469/327 418/507/360 392/480/334 
f 394/482/336 386/470/328 359/443/301 
f 359/443/301 397/485/339 394/482/336 
f 418/507/360 385/469/327 361/471/303 
f 361/471/303 399/508/341 418/507/360 
f 396/484/338 326/406/268 363/447/305 
f 363/447/305 401/489/343 396/484/338 
f 398/486/340 360/444/302 365/472/307 
f 365/472/307 403/509/345 398/486/340 
f 400/488/342 362/446/304 367/451/309 
f 367/451/309 405/493/347 400/488/342 
f 402/490/344 364/448/306 369/453/311 
f 369/453/311 407/495/349 402/490/344 
f 404/492/346 366/450/308 371/455/313 
f 371/455/313 409/497/351 404/492/346 
f 406/494/348 368/452/310 373/457/315 
f 373/457/315 411/499/353 406/494/348 
f 408/510/350 370/473/312 377/461/319 
f 377/461/319 414/502/356 408/510/350 
f 410/498/352 372/456/314 375/459/317 
f 375/459/317 412/500/354 410/498/352 
f 388/476/330 374/458/316 379/474/321 
f 379/474/321 389/477/331 388/476/330 
f 413/501/355 376/460/318 380/464/322 
f 380/464/322 416/505/358 413/501/355 
f 415/503/357 378/462/320 382/466/324 
f 382/466/324 417/506/359 415/503/357 
f 419/511/361 420/512/362 421/513/363 
f 422/514/364 413/501/355 416/505/358 
f 416/505/358 423/515/365 422/514/364 
f 424/516/366 415/503/357 417/506/359 
f 417/506/359 425/517/367 424/516/366 
f 426/518/368 355/439/297 358/442/300 
f 358/442/300 427/519/369 426/518/368 
f 428/520/370 391/479/333 392/480/334 
f 392/480/334 429/521/371 428/520/370 
f 430/522/372 393/481/335 394/482/336 
f 394/482/336 431/523/373 430/522/372 
f 432/524/374 395/483/337 396/484/338 
f 396/484/338 433/525/375 432/524/374 
f 434/526/376 397/485/339 398/486/340 
f 398/486/340 435/527/377 434/526/376 
f 436/528/378 399/487/341 400/488/342 
f 400/488/342 437/529/379 436/528/378 
f 438/530/380 401/489/343 402/490/344 
f 402/490/344 439/531/381 438/530/380 
f 440/532/382 403/491/345 404/492/346 
f 404/492/346 441/533/383 440/532/382 
f 442/534/384 405/493/347 406/494/348 
f 406/494/348 419/511/361 442/534/384 
f 443/535/385 407/495/349 408/496/350 
f 408/496/350 444/536/386 443/535/385 
f 445/537/387 409/497/351 410/498/352 
f 410/498/352 446/538/388 445/537/387 
f 420/512/362 411/499/353 388/476/330 
f 388/476/330 387/475/329 420/512/362 
f 447/539/389 412/500/354 413/501/355 
f 413/501/355 422/514/364 447/539/389 
f 448/540/390 414/502/356 415/503/357 
f 415/503/357 424/516/366 448/540/390 
f 390/541/332 389/504/331 355/439/297 
f 355/439/297 426/518/368 390/541/332 
f 423/515/365 416/505/358 391/479/333 
f 391/479/333 428/520/370 423/515/365 
f 425/517/367 417/506/359 393/481/335 
f 393/481/335 430/522/372 425/517/367 
f 427/519/369 358/442/300 395/483/337 
f 395/483/337 432/524/374 427/519/369 
f 429/521/371 392/480/334 418/507/360 
f 418/507/360 449/542/391 429/521/371 
f 431/523/373 394/482/336 397/485/339 
f 397/485/339 434/526/376 431/523/373 
f 449/542/391 418/507/360 399/508/341 
f 399/508/341 436/543/378 449/542/391 
f 433/525/375 396/484/338 401/489/343 
f 401/489/343 438/530/380 433/525/375 
f 435/527/377 398/486/340 403/509/345 
f 403/509/345 440/544/382 435/527/377 
f 437/529/379 400/488/342 405/493/347 
f 405/493/347 442/534/384 437/529/379 
f 439/531/381 402/490/344 407/495/349 
f 407/495/349 443/535/385 439/531/381 
f 441/533/383 404/492/346 409/497/351 
f 409/497/351 445/537/387 441/533/383 
f 419/511/361 406/494/348 411/499/353 
f 411/499/353 420/512/362 419/511/361 
f 444/545/386 408/510/350 414/502/356 
f 414/502/356 448/540/390 444/545/386 
f 446/538/388 410/498/352 412/500/354 
f 412/500/354 447/539/389 446/538/388 
f 444/545/386 448/540/390 421/546/363 
f 446/538/388 447/539/389 421/547/363 
f 387/475/329 390/478/332 421/513/363 
f 422/514/364 423/515/365 421/547/363 
f 424/516/366 425/517/367 421/546/363 
f 426/518/368 427/519/369 421/548/363 
f 428/520/370 429/521/371 421/547/363 
f 430/522/372 431/523/373 421/546/363 
f 432/524/374 433/525/375 421/548/363 
f 434/526/376 435/527/377 421/546/363 
f 436/528/378 437/529/379 421/513/363 
f 438/530/380 439/531/381 421/548/363 
f 440/532/382 441/533/383 421/547/363 
f 442/534/384 419/511/361 421/513/363 
f 443/535/385 444/536/386 421/548/363 
f 445/537/387 446/538/388 421/547/363 
f 420/512/362 387/475/329 421/513/363 
f 447/539/389 422/514/364 421/547/363 
f 448/540/390 424/516/366 421/546/363 
f 390/541/332 426/518/368 421/548/363 
f 423/515/365 428/520/370 421/547/363 
f 425/517/367 430/522/372 421/546/363 
f 427/519/369 432/524/374 421/548/363 
f 429/521/371 449/542/391 421/547/363 
f 431/523/373 434/526/376 421/546/363 
f 449/542/391 436/543/378 421/547/363 
f 433/525/375 438/530/380 421/548/363 
f 435/527/377 440/544/382 421/546/363 
f 437/529/379 442/534/384 421/513/363 
f 439/531/381 443/535/385 421/548/363 
f 441/533/383 445/537/387 421/547/363 
f 75/549/1 76/550/1 450/551/1 
f 80/552/1 75/549/1 450/551/1 
f 450/551/1 93/553/2 87/554/1 
f 450/551/1 87/554/1 88/555/1 
f 450/551/1 86/556/1 79/557/1 
f 79/557/1 80/552/1 450/551/1 
f 76/550/1 69/558/2 70/559/2 
f 70/559/2 450/551/1 76/550/1 
f 70/559/2 95/560/2 89/561/2 
f 89/561/2 450/551/1 70/559/2 
f 450/551/1 92/562/1 85/563/1 
f 85/563/1 86/556/1 450/551/1 
f 450/551/1 94/564/1 91/565/6 
f 91/565/6 92/562/1 450/551/1 
f 89/561/2 90/566/1 83/567/1 
f 83/567/1 450/551/1 89/561/2 
f 450/551/1 5/568/2 7/569/2 
f 7/569/2 93/553/2 450/551/1 
f 88/555/1 81/570/2 82/571/1 
f 82/571/1 450/551/1 88/555/1 
f 82/571/1 96/572/1 73/573/1 
f 73/573/1 450/551/1 82/571/1 
f 73/573/1 74/574/2 67/575/1 
f 67/575/1 450/551/1 73/573/1 
f 450/551/1 67/575/1 68/576/1 
f 68/576/1 94/564/1 450/551/1 
f 450/551/1 71/577/1 72/578/1 
f 72/578/1 5/568/2 450/551/1 
f 450/551/1 77/579/1 78/580/1 
f 78/580/1 71/577/1 450/551/1 
f 83/567/1 84/581/1 77/579/1 
f 77/579/1 450/551/1 83/567/1 
f 451/582/392 452/583/393 453/584/393 
f 451/582/392 453/584/393 454/585/393 
f 454/585/393 455/586/394 451/582/392 
f 455/586/394 456/587/395 457/588/396 
f 457/588/396 451/582/392 455/586/394 
f 456/587/395 458/589/397 459/590/397 
f 459/590/397 457/588/396 456/587/395 
f 460/591/398 461/592/398 462/593/399 
f 460/591/398 462/593/399 463/594/400 
f 463/594/400 464/595/398 460/591/398 
f 465/596/401 466/597/401 463/594/400 
f 463/594/400 462/593/399 465/596/401 
f 467/598/402 468/599/402 466/597/401 
f 466/597/401 465/596/401 467/598/402 
f 463/600/1 455/601/1 454/585/1 
f 454/585/1 464/602/1 463/600/1 
f 468/603/403 458/589/403 456/604/403 
f 456/604/403 466/605/403 468/603/403 
f 464/602/25 454/585/25 453/584/25 
f 453/584/25 460/606/25 464/602/25 
f 462/593/404 451/582/404 457/588/404 
f 457/588/404 465/596/404 462/593/404 
f 465/607/405 457/588/405 459/590/405 
f 459/590/405 467/608/405 465/607/405 
f 467/609/25 459/590/25 458/589/25 
f 458/589/25 468/603/25 467/609/25 
f 460/610/406 453/611/406 452/583/406 
f 452/583/406 461/612/406 460/610/406 
f 461/612/407 452/583/407 451/582/407 
f 451/582/407 462/613/407 461/612/407 
f 466/597/25 456/614/25 455/615/25 
f 455/615/25 463/594/25 466/597/25 
f 469/616/408 470/617/409 471/618/409 
f 469/616/408 471/618/409 472/619/409 
f 472/619/409 473/620/410 469/616/408 
f 473/620/410 474/621/411 475/622/411 
f 475/622/411 469/616/408 473/620/410 
f 474/621/411 476/623/412 477/624/412 
f 477/624/412 475/622/411 474/621/411 
f 478/625/413 479/626/413 480/627/414 
f 478/625/413 480/627/414 481/628/415 
f 481/628/415 482/629/413 478/625/413 
f 483/630/416 484/631/416 481/628/415 
f 481/628/415 480/627/414 483/630/416 
f 485/632/417 486/633/417 484/631/416 
f 484/631/416 483/630/416 485/632/417 
f 481/634/1 473/635/1 472/619/1 
f 472/619/1 482/636/1 481/634/1 
f 486/637/418 476/623/418 474/638/418 
f 474/638/418 484/639/418 486/637/418 
f 482/636/36 472/619/36 471/618/36 
f 471/618/36 478/640/36 482/636/36 
f 480/627/419 469/616/419 475/622/419 
f 475/622/419 483/630/419 480/627/419 
f 483/641/420 475/622/420 477/624/420 
f 477/624/420 485/642/420 483/641/420 
f 485/643/36 477/624/36 476/623/36 
f 476/623/36 486/637/36 485/643/36 
f 478/644/421 471/645/421 470/617/421 
f 470/617/421 479/646/421 478/644/421 
f 479/646/422 470/617/422 469/616/422 
f 469/616/422 480/647/422 479/646/422 
f 484/631/423 474/648/423 473/649/423 
f 473/649/423 481/628/423 484/631/423 
f 487/650/424 488/651/425 489/652/425 
f 487/650/424 489/652/425 490/653/425 
f 490/653/425 491/654/426 487/650/424 
f 491/654/426 492/655/427 493/656/428 
f 493/656/428 487/650/424 491/654/426 
f 492/655/427 494/657/429 495/658/429 
f 495/658/429 493/656/428 492/655/427 
f 496/659/430 497/660/430 498/661/431 
f 496/659/430 498/661/431 499/662/432 
f 499/662/432 500/663/430 496/659/430 
f 501/664/433 502/665/433 499/662/432 
f 499/662/432 498/661/431 501/664/433 
f 503/666/434 504/667/434 502/665/433 
f 502/665/433 501/664/433 503/666/434 
f 499/668/1 491/669/1 490/653/1 
f 490/653/1 500/670/1 499/668/1 
f 504/671/418 494/657/418 492/672/418 
f 492/672/418 502/673/418 504/671/418 
f 500/670/435 490/653/435 489/652/435 
f 489/652/435 496/674/435 500/670/435 
f 498/661/436 487/650/436 493/656/436 
f 493/656/436 501/664/436 498/661/436 
f 501/675/437 493/656/437 495/658/437 
f 495/658/437 503/676/437 501/675/437 
f 503/677/35 495/658/35 494/657/35 
f 494/657/35 504/671/35 503/677/35 
f 496/678/363 489/679/363 488/651/363 
f 488/651/363 497/680/363 496/678/363 
f 497/680/438 488/651/438 487/650/438 
f 487/650/438 498/681/438 497/680/438 
f 502/665/35 492/682/35 491/683/35 
f 491/683/35 499/662/35 502/665/35 
f 505/684/36 506/685/36 507/686/36 
f 507/686/36 508/687/36 505/684/36 
f 508/688/363 507/686/363 509/689/363 
f 509/689/363 510/690/363 508/688/363 
f 510/691/35 509/689/35 511/692/35 
f 511/692/35 512/693/35 510/691/35 
f 512/694/439 511/692/439 506/685/439 
f 506/685/439 505/695/439 512/694/439 
f 506/685/12 511/692/12 509/689/12 
f 509/689/12 507/686/12 506/685/12 
f 513/696/12 514/697/12 515/698/12 
f 515/698/12 516/699/12 513/696/12 
f 516/700/363 515/698/363 517/701/363 
f 517/701/363 518/702/363 516/700/363 
f 518/703/25 517/701/25 519/704/25 
f 519/704/25 520/705/25 518/703/25 
f 520/706/6 519/704/6 514/697/6 
f 514/697/6 513/707/6 520/706/6 
f 514/697/435 519/704/435 517/701/435 
f 517/701/435 515/698/435 514/697/435 
f 521/708/35 522/709/35 523/710/35 
f 523/710/35 524/711/35 521/708/35 
f 524/712/421 523/710/421 525/713/421 
f 525/713/421 526/714/421 524/712/421 
f 526/715/36 525/713/36 527/716/36 
f 527/716/36 528/717/36 526/715/36 
f 528/718/6 527/716/6 522/709/6 
f 522/709/6 521/719/6 528/718/6 
f 522/709/25 527/716/25 525/713/25 
f 525/713/25 523/710/25 522/709/25 
f 529/720/25 530/721/25 531/722/25 
f 531/722/25 532/723/25 529/720/25 
f 532/724/440 531/722/440 533/725/440 
f 533/725/440 534/726/440 532/724/440 
f 534/727/12 533/725/12 535/728/12 
f 535/728/12 536/729/12 534/727/12 
f 536/730/2 535/728/2 530/721/2 
f 530/721/2 529/731/2 536/730/2 
f 530/721/441 535/728/441 533/725/441 
f 533/725/441 531/722/441 530/721/441 
f 537/732/442 538/733/443 539/734/443 
f 539/734/443 540/735/443 541/736/444 
f 539/734/443 541/736/444 537/732/442 
f 541/736/444 542/737/445 543/738/446 
f 543/738/446 537/732/442 541/736/444 
f 542/737/445 544/739/447 545/740/447 
f 545/740/447 543/738/446 542/737/445 
f 546/741/448 547/742/448 548/743/449 
f 546/741/448 548/743/449 549/744/450 
f 549/744/450 550/745/448 546/741/448 
f 551/746/451 552/747/452 549/744/450 
f 549/744/450 548/743/449 551/746/451 
f 553/748/453 554/749/453 552/747/452 
f 552/747/452 551/746/451 553/748/453 
f 549/750/5 541/751/5 540/735/5 
f 540/735/5 550/752/5 549/750/5 
f 554/753/418 544/739/418 542/754/418 
f 542/754/418 552/755/418 554/753/418 
f 550/752/454 540/735/454 539/734/454 
f 539/734/454 546/756/454 550/752/454 
f 548/743/455 537/732/455 543/738/455 
f 543/738/455 551/746/455 548/743/455 
f 551/757/456 543/738/456 545/740/456 
f 545/740/456 553/758/456 551/757/456 
f 553/759/25 545/740/25 544/739/25 
f 544/739/25 554/753/25 553/759/25 
f 546/760/418 539/761/418 538/733/418 
f 538/733/418 547/762/418 546/760/418 
f 547/762/457 538/733/457 537/732/457 
f 537/732/457 548/763/457 547/762/457 
f 552/747/458 542/749/458 541/764/458 
f 541/764/458 549/744/458 552/747/458 
f 555/765/459 556/766/460 557/767/460 
f 557/767/460 558/768/460 559/769/461 
f 557/767/460 559/769/461 555/765/459 
f 559/769/461 560/770/462 561/771/463 
f 561/771/463 555/765/459 559/769/461 
f 560/770/462 562/772/464 563/773/464 
f 563/773/464 561/771/463 560/770/462 
f 564/774/465 565/775/465 566/776/466 
f 564/774/465 566/776/466 567/777/467 
f 567/777/467 568/778/465 564/774/465 
f 569/779/468 570/780/469 567/777/467 
f 567/777/467 566/776/466 569/779/468 
f 571/781/470 572/782/470 570/780/469 
f 570/780/469 569/779/468 571/781/470 
f 567/783/1 559/784/1 558/768/1 
f 558/768/1 568/785/1 567/783/1 
f 572/786/406 562/772/406 560/787/406 
f 560/787/406 570/788/406 572/786/406 
f 568/785/36 558/768/36 557/767/36 
f 557/767/36 564/789/36 568/785/36 
f 566/776/471 555/765/471 561/771/471 
f 561/771/471 569/779/471 566/776/471 
f 569/790/472 561/771/472 563/773/472 
f 563/773/472 571/791/472 569/790/472 
f 571/792/36 563/773/36 562/772/36 
f 562/772/36 572/786/36 571/792/36 
f 564/793/473 557/794/473 556/766/473 
f 556/766/473 565/795/473 564/793/473 
f 565/795/474 556/766/474 555/765/474 
f 555/765/474 566/796/474 565/795/474 
f 570/780/36 560/797/36 559/798/36 
f 559/798/36 567/777/36 570/780/36 
f 573/799/475 574/800/476 575/801/476 
f 575/801/476 576/802/476 577/803/477 
f 575/801/476 577/803/477 573/799/475 
f 577/803/477 578/804/478 579/805/479 
f 579/805/479 573/799/475 577/803/477 
f 578/804/478 580/806/480 581/807/480 
f 581/807/480 579/805/479 578/804/478 
f 582/808/481 583/809/481 584/810/482 
f 582/808/481 584/810/482 585/811/483 
f 585/811/483 586/812/481 582/808/481 
f 587/813/484 588/814/485 585/811/483 
f 585/811/483 584/810/482 587/813/484 
f 589/815/486 590/816/486 588/814/485 
f 588/814/485 587/813/484 589/815/486 
f 585/817/487 577/818/487 576/819/487 
f 576/819/487 586/812/487 585/817/487 
f 590/816/488 580/820/488 578/821/488 
f 578/821/488 588/822/488 590/816/488 
f 586/812/12 576/819/12 575/823/12 
f 575/823/12 582/808/12 586/812/12 
f 584/810/489 573/799/489 579/805/489 
f 579/805/489 587/813/489 584/810/489 
f 587/813/490 579/824/490 581/825/490 
f 581/825/490 589/815/490 587/813/490 
f 589/815/12 581/826/12 580/820/12 
f 580/820/12 590/816/12 589/815/12 
f 582/827/488 575/828/488 574/829/488 
f 574/829/488 583/809/488 582/827/488 
f 583/809/491 574/829/491 573/830/491 
f 573/830/491 584/810/491 583/809/491 
f 588/806/492 578/804/492 577/803/492 
f 577/803/492 585/831/492 588/806/492 
f 591/832/493 592/833/494 593/834/494 
f 593/834/494 594/835/494 595/836/495 
f 593/834/494 595/836/495 591/832/493 
f 595/836/495 596/837/496 597/838/497 
f 597/838/497 591/832/493 595/836/495 
f 596/837/496 598/839/498 599/840/498 
f 599/840/498 597/838/497 596/837/496 
f 600/841/499 601/842/499 602/843/500 
f 600/841/499 602/843/500 603/844/501 
f 603/844/501 604/845/499 600/841/499 
f 605/846/502 606/847/503 603/844/501 
f 603/844/501 602/843/500 605/846/502 
f 607/848/504 608/849/504 606/847/503 
f 606/847/503 605/846/502 607/848/504 
f 603/850/1 595/851/1 594/835/1 
f 594/835/1 604/852/1 603/850/1 
f 608/853/421 598/839/421 596/854/421 
f 596/854/421 606/855/421 608/853/421 
f 604/852/35 594/835/35 593/834/35 
f 593/834/35 600/856/35 604/852/35 
f 602/843/505 591/832/505 597/838/505 
f 597/838/505 605/846/505 602/843/505 
f 605/857/506 597/838/506 599/840/506 
f 599/840/506 607/858/506 605/857/506 
f 607/859/35 599/840/35 598/839/35 
f 598/839/35 608/853/35 607/859/35 
f 600/860/363 593/861/363 592/833/363 
f 592/833/363 601/862/363 600/860/363 
f 601/862/507 592/833/507 591/832/507 
f 591/832/507 602/863/507 601/862/507 
f 606/847/35 596/864/35 595/865/35 
f 595/865/35 603/844/35 606/847/35 
f 609/866/36 610/867/36 611/868/36 
f 611/868/36 612/869/36 609/866/36 
f 612/870/363 611/868/363 613/871/363 
f 613/871/363 614/872/363 612/870/363 
f 614/873/35 613/871/35 615/874/35 
f 615/874/35 616/875/35 614/873/35 
f 616/876/487 615/874/487 610/867/487 
f 610/867/487 609/877/487 616/876/487 
f 610/867/12 615/874/12 613/871/12 
f 613/871/12 611/868/12 610/867/12 
f 617/878/508 618/879/508 619/880/508 
f 619/880/508 620/881/508 617/878/508 
f 620/882/509 619/880/509 621/883/509 
f 621/883/509 622/884/509 620/882/509 
f 622/885/25 621/883/25 623/886/25 
f 623/886/25 624/887/25 622/885/25 
f 624/888/1 623/886/1 618/879/1 
f 618/879/1 617/889/1 624/888/1 
f 618/879/510 623/886/510 621/883/510 
f 621/883/510 619/880/510 618/879/510 
f 625/890/35 626/891/35 627/892/35 
f 627/892/35 628/893/35 625/890/35 
f 628/894/473 627/892/473 629/895/473 
f 629/895/473 630/896/473 628/894/473 
f 630/897/36 629/895/36 631/898/36 
f 631/898/36 632/899/36 630/897/36 
f 632/900/1 631/898/1 626/891/1 
f 626/891/1 625/901/1 632/900/1 
f 626/891/454 631/898/454 629/895/454 
f 629/895/454 627/892/454 626/891/454 
f 633/902/25 634/903/25 635/904/25 
f 635/904/25 636/905/25 633/902/25 
f 636/906/421 635/904/421 637/907/421 
f 637/907/421 638/908/421 636/906/421 
f 638/909/12 637/907/12 639/910/12 
f 639/910/12 640/911/12 638/909/12 
f 640/912/1 639/910/1 634/903/1 
f 634/903/1 633/913/1 640/912/1 
f 634/903/36 639/910/36 637/907/36 
f 637/907/36 635/904/36 634/903/36 
f 641/914/511 642/915/512 643/916/512 
f 641/914/511 643/916/512 644/917/512 
f 644/917/512 645/918/513 641/914/511 
f 645/918/513 646/919/514 647/920/515 
f 647/920/515 641/914/511 645/918/513 
f 646/919/514 648/921/516 649/922/516 
f 649/922/516 647/920/515 646/919/514 
f 650/923/517 651/924/517 652/925/518 
f 650/923/517 652/925/518 653/926/519 
f 653/926/519 654/927/517 650/923/517 
f 655/928/520 656/929/521 653/926/519 
f 653/926/519 652/925/518 655/928/520 
f 657/930/522 658/931/522 656/929/521 
f 656/929/521 655/928/520 657/930/522 
f 653/932/523 645/933/523 644/917/523 
f 644/917/523 654/934/523 653/932/523 
f 658/935/524 648/921/524 646/936/524 
f 646/936/524 656/937/524 658/935/524 
f 654/934/525 644/917/525 643/916/525 
f 643/916/525 650/938/525 654/934/525 
f 652/925/526 641/914/526 647/920/526 
f 647/920/526 655/928/526 652/925/526 
f 655/939/527 647/920/527 649/922/527 
f 649/922/527 657/940/527 655/939/527 
f 657/941/528 649/922/528 648/921/528 
f 648/921/528 658/935/528 657/941/528 
f 650/942/524 643/943/524 642/915/524 
f 642/915/524 651/944/524 650/942/524 
f 651/944/529 642/915/529 641/914/529 
f 641/914/529 652/945/529 651/944/529 
f 656/929/530 646/946/530 645/947/530 
f 645/947/530 653/926/530 656/929/530 
# 1232 faces

